<svg width="20" height="20" viewBox="0 0 20 20" fill="none" xmlns="http://www.w3.org/2000/svg">
<path d="M14.2242 10C14.2242 10.1674 14.1928 10.3294 14.13 10.4859C14.0673 10.6433 13.9836 10.7743 13.8789 10.8789L8.10314 16.6547C7.87294 16.8849 7.57997 17 7.22421 17C6.86846 17 6.57549 16.8849 6.34529 16.6547C6.1151 16.4245 6 16.1315 6 15.7758C6 15.42 6.1151 15.1271 6.34529 14.8969L11.2422 10L6.34529 5.10314C6.1151 4.87295 6 4.57997 6 4.22422C6 3.86846 6.1151 3.57549 6.34529 3.34529C6.57549 3.1151 6.86846 3 7.22421 3C7.57997 3 7.87294 3.1151 8.10314 3.34529L13.8789 9.12108C14.0045 9.24664 14.0932 9.38266 14.1451 9.52915C14.1978 9.67564 14.2242 9.83259 14.2242 10Z" fill="#3366DD"/>
</svg>
