<svg width="24" height="27" viewBox="0 0 24 27" fill="none" xmlns="http://www.w3.org/2000/svg">
<path d="M19.6956 12.6443H5.773L10.0343 7.90807C10.2336 7.68623 10.3294 7.40023 10.3008 7.11298C10.2722 6.82574 10.1214 6.56078 9.8817 6.37639C9.64196 6.19201 9.3329 6.1033 9.02248 6.12978C8.71207 6.15626 8.42574 6.29577 8.22648 6.51761L2.35691 13.0354C2.31742 13.0872 2.28211 13.1417 2.25126 13.1983C2.25126 13.2526 2.25126 13.2852 2.16909 13.3395C2.11588 13.4641 2.08802 13.5967 2.08691 13.7306C2.08802 13.8645 2.11588 13.9971 2.16909 14.1217C2.16909 14.176 2.16909 14.2086 2.25126 14.2629C2.28211 14.3195 2.31742 14.374 2.35691 14.4258L8.22648 20.9436C8.33685 21.0662 8.47507 21.1648 8.6313 21.2324C8.78753 21.3 8.95793 21.3349 9.13039 21.3347C9.40468 21.3352 9.6705 21.2468 9.8817 21.0848C10.0006 20.9936 10.0988 20.8816 10.1708 20.7552C10.2429 20.6289 10.2872 20.4906 10.3014 20.3483C10.3156 20.206 10.2993 20.0625 10.2535 19.9261C10.2076 19.7896 10.1332 19.6629 10.0343 19.5531L5.773 14.8169H19.6956C20.007 14.8169 20.3055 14.7025 20.5257 14.4987C20.7458 14.295 20.8695 14.0187 20.8695 13.7306C20.8695 13.4425 20.7458 13.1662 20.5257 12.9625C20.3055 12.7588 20.007 12.6443 19.6956 12.6443Z" fill="white"/>
</svg>
