<svg width="19" height="19" viewBox="0 0 19 19" fill="none" xmlns="http://www.w3.org/2000/svg">
<path d="M11.1689 2.41329C11.1913 2.3297 11.2299 2.25133 11.2826 2.18267C11.3352 2.114 11.4009 2.05638 11.4758 2.01311C11.5507 1.96983 11.6335 1.94174 11.7193 1.93045C11.8051 1.91915 11.8922 1.92487 11.9758 1.94728C13.1969 2.26587 14.3109 2.9042 15.2033 3.79654C16.0956 4.68887 16.7339 5.80294 17.0525 7.024C17.0749 7.10758 17.0807 7.19476 17.0694 7.28055C17.0581 7.36634 17.03 7.44906 16.9867 7.524C16.9434 7.59893 16.8858 7.6646 16.8171 7.71725C16.7485 7.76991 16.6701 7.80852 16.5865 7.83088C16.5309 7.84549 16.4736 7.85296 16.4161 7.85311C16.2709 7.8531 16.1299 7.80516 16.0148 7.71672C15.8997 7.62828 15.817 7.5043 15.7796 7.36404C15.5198 6.36724 14.9988 5.45777 14.2704 4.72937C13.542 4.00097 12.6326 3.48 11.6358 3.22017C11.5521 3.1979 11.4736 3.15935 11.4049 3.10673C11.3361 3.05411 11.2784 2.98846 11.2351 2.91351C11.1917 2.83857 11.1635 2.75582 11.1522 2.66999C11.1409 2.58415 11.1465 2.49693 11.1689 2.41329ZM10.9771 5.85486C12.1125 6.15785 12.842 6.88733 13.145 8.02272C13.1823 8.16297 13.265 8.28695 13.3801 8.37539C13.4952 8.46383 13.6362 8.51178 13.7814 8.51178C13.8389 8.51164 13.8962 8.50417 13.9518 8.48955C14.0354 8.46719 14.1138 8.42858 14.1825 8.37593C14.2511 8.32327 14.3087 8.2576 14.352 8.18267C14.3953 8.10774 14.4234 8.02501 14.4347 7.93922C14.446 7.85343 14.4402 7.76626 14.4178 7.68268C13.9963 6.10515 12.8947 5.00352 11.3171 4.58197C11.2336 4.55965 11.1464 4.554 11.0606 4.56536C10.9749 4.57671 10.8922 4.60485 10.8173 4.64816C10.7424 4.69147 10.6768 4.74911 10.6242 4.81778C10.5716 4.88645 10.533 4.96482 10.5107 5.0484C10.4883 5.13197 10.4827 5.21913 10.4941 5.30489C10.5054 5.39066 10.5335 5.47334 10.5769 5.54823C10.6202 5.62311 10.6778 5.68874 10.7465 5.74135C10.8152 5.79396 10.8935 5.83253 10.9771 5.85486ZM17.7236 13.7054C17.5767 14.8211 17.0288 15.8451 16.1822 16.5863C15.3355 17.3276 14.248 17.7352 13.1227 17.7332C6.58539 17.7332 1.26661 12.4144 1.26661 5.87709C1.26459 4.75182 1.67226 3.6643 2.41347 2.81763C3.15468 1.97097 4.17874 1.42307 5.29439 1.27626C5.57651 1.24181 5.86221 1.29953 6.10883 1.44079C6.35545 1.58206 6.54978 1.7993 6.66279 2.06008L8.40168 5.94213V5.95201C8.48821 6.15164 8.52394 6.36958 8.50569 6.58638C8.48745 6.80318 8.41579 7.01208 8.29712 7.19444C8.2823 7.21667 8.26666 7.23725 8.25019 7.25783L6.53599 9.28984C7.15268 10.543 8.46343 11.8422 9.73303 12.4605L11.737 10.7554C11.7567 10.7388 11.7773 10.7234 11.7988 10.7093C11.981 10.5878 12.1906 10.5136 12.4087 10.4935C12.6268 10.4733 12.8464 10.5079 13.0478 10.594L13.0585 10.599L16.9373 12.337C17.1985 12.4496 17.4163 12.6438 17.558 12.8904C17.6997 13.1371 17.7578 13.423 17.7236 13.7054ZM16.4161 13.5407H16.407L12.5373 11.8076L10.5325 13.5128C10.513 13.5292 10.4927 13.5446 10.4716 13.5589C10.282 13.6853 10.0629 13.7605 9.83557 13.7769C9.60828 13.7934 9.38061 13.7506 9.1748 13.6527C7.63268 12.9076 6.0955 11.3819 5.34956 9.8563C5.25078 9.65199 5.20646 9.42563 5.22088 9.19916C5.23531 8.97268 5.30799 8.75378 5.43189 8.56365C5.44586 8.54133 5.46155 8.52013 5.47882 8.50025L7.19467 6.46578L5.46565 2.59607C5.46532 2.59279 5.46532 2.58948 5.46565 2.58619C4.66722 2.69035 3.93413 3.08198 3.40368 3.68775C2.87323 4.29353 2.5818 5.0719 2.58395 5.87709C2.58701 8.67121 3.69832 11.35 5.67406 13.3258C7.6498 15.3015 10.3286 16.4128 13.1227 16.4159C13.9274 16.4186 14.7056 16.1282 15.3117 15.5989C15.9178 15.0696 16.3104 14.3377 16.4161 13.5399V13.5407Z" fill="white"/>
</svg>
