<svg width="22" height="22" viewBox="0 0 22 22" fill="none" xmlns="http://www.w3.org/2000/svg">
<path d="M15.9342 21.8C16.221 21.8016 16.5052 21.7461 16.7704 21.6368C17.0355 21.5274 17.2762 21.3663 17.4784 21.1628L20.4049 18.2364C20.606 18.034 20.7189 17.7603 20.7189 17.475C20.7189 17.1897 20.606 16.916 20.4049 16.7137L16.0853 12.3942C15.883 12.193 15.6093 12.0802 15.324 12.0802C15.0387 12.0802 14.765 12.193 14.5627 12.3942L12.8349 14.1112C11.6386 13.7922 10.5307 13.2051 9.59523 12.3942C8.78653 11.4572 8.19962 10.3498 7.87821 9.15452L9.59523 7.42671C9.79636 7.22438 9.90925 6.95068 9.90925 6.66539C9.90925 6.3801 9.79636 6.1064 9.59523 5.90407L5.27569 1.58453C5.07336 1.3834 4.79966 1.2705 4.51437 1.2705C4.22908 1.2705 3.95538 1.3834 3.75305 1.58453L0.837363 4.52181C0.633948 4.72401 0.472843 4.9647 0.363452 5.22984C0.254061 5.49497 0.198575 5.77924 0.200231 6.06605C0.298202 10.2153 1.9562 14.1752 4.84374 17.1565C7.825 20.044 11.7849 21.702 15.9342 21.8ZM4.51977 3.88468L7.31667 6.68158L5.92362 8.07464C5.79168 8.19823 5.69288 8.35296 5.63628 8.52466C5.57968 8.69635 5.56708 8.87951 5.59966 9.05733C6.00328 10.8611 6.85784 12.5331 8.08339 13.9168C9.46603 15.1439 11.1384 15.9987 12.9429 16.4006C13.118 16.4372 13.2995 16.4297 13.471 16.3788C13.6426 16.3279 13.7987 16.2352 13.9256 16.109L15.3186 14.6835L18.1155 17.4804L15.9558 19.6402C12.3746 19.548 8.95756 18.1188 6.37717 15.6338C3.88578 13.0524 2.45245 9.63087 2.36 6.04445L4.51977 3.88468ZM19.6382 9.92124H21.7979C21.8259 8.63726 21.5937 7.3609 21.1152 6.16908C20.6367 4.97726 19.9218 3.89467 19.0137 2.98654C18.1055 2.07841 17.0229 1.36355 15.8311 0.885034C14.6393 0.406524 13.363 0.174271 12.079 0.202274V2.36204C13.081 2.32738 14.0794 2.4992 15.0123 2.86682C15.9451 3.23444 16.7923 3.79 17.5012 4.49896C18.2102 5.20793 18.7658 6.05515 19.1334 6.98795C19.501 7.92076 19.6728 8.91921 19.6382 9.92124Z" fill="#3366DD"/>
<path d="M12.0781 6.68159C14.3459 6.68159 15.3178 7.65349 15.3178 9.92125H17.4776C17.4776 6.44402 15.5554 4.52182 12.0781 4.52182V6.68159Z" fill="#3366DD"/>
</svg>
