<svg width="40" height="40" viewBox="0 0 40 40" fill="none" xmlns="http://www.w3.org/2000/svg">
<path d="M16.25 5H35C37.0812 5 38.75 6.66875 38.75 8.75V12.5H32.3563L27.5 17.3563V24.8563L23.75 28.6063V35H16.25V28.6063L12.5 24.8563V15.1438L16.25 11.3938V5ZM31.25 18.8938V23.75H38.75V16.25H33.8937L31.25 18.8938ZM9.85625 12.5L12.5 9.85625V5H5C2.91875 5 1.25 6.66875 1.25 8.75V12.5H9.85625ZM8.75 23.75V16.25H1.25V23.75H8.75ZM12.5 30.1438L9.85625 27.5H1.25V31.25C1.25 33.3313 2.91875 35 5 35H12.5V30.1438ZM30.1437 27.5L27.5 30.1438V35H35C37.0812 35 38.75 33.3313 38.75 31.25V27.5H30.1437Z" fill="white"/>
</svg>
