<svg width="19" height="19" viewBox="0 0 19 19" fill="none" xmlns="http://www.w3.org/2000/svg">
<path d="M1.72727 5.18182V17.2727H13.8182V19H1.72727C0.777273 19 0 18.2227 0 17.2727V5.18182H1.72727ZM15.5455 1.72727C16.4955 1.72727 17.2727 2.50455 17.2727 3.45455V13.8182C17.2727 14.7682 16.4955 15.5455 15.5455 15.5455H5.18182C4.23182 15.5455 3.45455 14.7682 3.45455 13.8182V3.45455C3.45455 2.50455 4.23182 1.72727 5.18182 1.72727H7.92818C8.29091 0.725455 9.24091 0 10.3636 0C11.4864 0 12.4364 0.725455 12.7991 1.72727H15.5455ZM10.3636 1.72727C9.88864 1.72727 9.5 2.11591 9.5 2.59091C9.5 3.06591 9.88864 3.45455 10.3636 3.45455C10.8386 3.45455 11.2273 3.06591 11.2273 2.59091C11.2273 2.11591 10.8386 1.72727 10.3636 1.72727ZM6.90909 5.18182V3.45455H5.18182V13.8182H15.5455V3.45455H13.8182V5.18182M11.2273 12.0909H6.90909V10.3636H11.2273M13.8182 8.63636H6.90909V6.90909H13.8182V8.63636Z" fill="white"/>
</svg>
