<svg width="24" height="24" viewBox="0 0 24 24" fill="none" xmlns="http://www.w3.org/2000/svg">
<path d="M11.9979 1C16.335 1 19.5611 1.92615 21.651 3.82684C22.1654 4.29487 22.5532 4.88537 22.7782 5.54345C23.0032 6.20153 23.0581 6.90582 22.9379 7.59083L22.8917 7.82182L22.6805 8.72047C22.5123 9.43536 22.0897 10.0646 21.4917 10.4909C20.8936 10.9171 20.1609 11.1112 19.4302 11.0369L17.4998 10.8412C16.8717 10.7772 16.2792 10.5183 15.8056 10.1007C15.332 9.68313 15.001 9.1278 14.8589 8.51258L14.4299 6.65808C14.4217 6.62249 14.4065 6.58888 14.3851 6.55923C14.3638 6.52958 14.3368 6.50448 14.3056 6.48539C13.9525 6.26981 13.1683 6.13341 11.9979 6.13341C10.3865 6.13341 9.62976 6.3864 9.58686 6.56679L9.13809 8.51368C8.99599 9.1289 8.66494 9.68423 8.19133 10.1018C7.71772 10.5194 7.12531 10.7783 6.49714 10.8423L4.57664 11.0369C3.84786 11.1111 3.11691 10.9183 2.51955 10.4943C1.92218 10.0703 1.49897 9.44391 1.32852 8.73147L1.11294 7.83282C0.941057 7.11349 0.965744 6.36117 1.18441 5.65466C1.40308 4.94814 1.80769 4.31341 2.35587 3.81694C4.44575 1.92285 7.66857 1 11.9979 1ZM11.9979 2.64991C8.04145 2.64991 5.20471 3.46276 3.46351 5.03897C3.13452 5.3369 2.89171 5.71781 2.76051 6.1418C2.62931 6.5658 2.61454 7.01728 2.71775 7.44894L2.93334 8.34759C3.01074 8.67143 3.20304 8.95617 3.47451 9.14896C3.74599 9.34174 4.07819 9.42946 4.40945 9.39583L6.32995 9.20004C6.61537 9.17092 6.88453 9.05324 7.09972 8.86349C7.31491 8.67374 7.46536 8.42143 7.52998 8.1419L7.98095 6.18951C8.27794 4.94658 9.66386 4.48461 11.9979 4.48461C13.4476 4.48461 14.4893 4.6639 15.1658 5.07857C15.6079 5.34806 15.9214 5.78253 16.038 6.28741L16.467 8.1419C16.599 8.71497 17.0807 9.14065 17.6659 9.20004L19.5963 9.39583C19.9285 9.42951 20.2616 9.34115 20.5334 9.14725C20.8053 8.95334 20.9972 8.66715 21.0735 8.34209L21.2847 7.44454L21.3221 7.25645C21.3847 6.85227 21.3461 6.43888 21.2098 6.05326C21.0735 5.66763 20.8438 5.3218 20.5412 5.04667C18.8011 3.46496 15.961 2.64991 11.9979 2.64991ZM12.5325 14.4786C12.5325 14.2599 12.4456 14.05 12.2909 13.8953C12.1362 13.7406 11.9263 13.6537 11.7075 13.6537C11.4888 13.6537 11.2789 13.7406 11.1242 13.8953C10.9695 14.05 10.8826 14.2599 10.8826 14.4786V17.2285C10.8826 17.6839 11.2522 18.0534 11.7075 18.0534H13.6324C13.8512 18.0534 14.0611 17.9665 14.2158 17.8118C14.3705 17.6571 14.4574 17.4473 14.4574 17.2285C14.4574 17.0097 14.3705 16.7999 14.2158 16.6452C14.0611 16.4905 13.8512 16.4035 13.6324 16.4035H12.5325V14.4786ZM5.93287 16.4035C5.93287 14.7991 6.57024 13.2603 7.70477 12.1258C8.8393 10.9913 10.3781 10.3539 11.9825 10.3539C13.587 10.3539 15.1258 10.9913 16.2603 12.1258C17.3948 13.2603 18.0322 14.7991 18.0322 16.4035C18.0322 18.008 17.3948 19.5468 16.2603 20.6813C15.1258 21.8158 13.587 22.4532 11.9825 22.4532C10.3781 22.4532 8.8393 21.8158 7.70477 20.6813C6.57024 19.5468 5.93287 18.008 5.93287 16.4035ZM11.9825 12.0038C10.8156 12.0038 9.69655 12.4673 8.87143 13.2924C8.04632 14.1176 7.58278 15.2367 7.58278 16.4035C7.58278 17.5704 8.04632 18.6895 8.87143 19.5146C9.69655 20.3398 10.8156 20.8033 11.9825 20.8033C13.1494 20.8033 14.2685 20.3398 15.0936 19.5146C15.9187 18.6895 16.3823 17.5704 16.3823 16.4035C16.3823 15.2367 15.9187 14.1176 15.0936 13.2924C14.2685 12.4673 13.1494 12.0038 11.9825 12.0038Z" fill="#3366DD" stroke="#3366DD" stroke-width="0.4"/>
</svg>
