<svg width="24" height="24" viewBox="0 0 24 24" fill="none" xmlns="http://www.w3.org/2000/svg">
<path d="M2.55866 21.9364H21.4413C21.5895 21.9364 21.7316 21.8775 21.8364 21.7727C21.9411 21.668 22 21.5259 22 21.3777C22 21.2295 21.9411 21.0874 21.8364 20.9827C21.7316 20.8779 21.5895 20.819 21.4413 20.819H2.55866C2.41049 20.819 2.2684 20.8779 2.16363 20.9827C2.05886 21.0874 2 21.2295 2 21.3777C2 21.5259 2.05886 21.668 2.16363 21.7727C2.2684 21.8775 2.41049 21.9364 2.55866 21.9364ZM9.44358 17.7375C9.91553 17.6054 10.3462 17.3555 10.695 17.0112L21.3542 6.35201C21.7192 5.98554 21.9242 5.48937 21.9242 4.97212C21.9242 4.45488 21.7192 3.9587 21.3542 3.59223L20.3039 2.55313C19.9322 2.19811 19.438 2 18.924 2C18.41 2 17.9158 2.19811 17.5441 2.55313L6.88492 13.2012C6.54004 13.5477 6.29329 13.9795 6.16983 14.4526L5.34302 17.5364C5.30379 17.6772 5.30278 17.826 5.34009 17.9674C5.3774 18.1088 5.45168 18.2377 5.55531 18.3408C5.71346 18.4963 5.92572 18.5844 6.14749 18.5866L9.44358 17.7375ZM9.90168 16.2179C9.6957 16.4276 9.43715 16.5781 9.15307 16.6537L8.06927 16.9442L6.95196 15.8269L7.24246 14.7431C7.32061 14.4601 7.47074 14.2022 7.67821 13.9945L8.10279 13.5811L10.3263 15.8045L9.90168 16.2179ZM11.1196 15.0112L8.89609 12.7878L16.4156 5.26821L18.6391 7.49168L11.1196 15.0112ZM20.5609 5.56989L19.4324 6.69838L17.2089 4.47492L18.3374 3.33525C18.4151 3.25728 18.5074 3.19541 18.609 3.1532C18.7106 3.11098 18.8196 3.08925 18.9296 3.08925C19.0397 3.08925 19.1486 3.11098 19.2502 3.1532C19.3519 3.19541 19.4441 3.25728 19.5218 3.33525L20.5609 4.38553C20.7167 4.54323 20.8041 4.756 20.8041 4.97771C20.8041 5.19942 20.7167 5.41219 20.5609 5.56989Z" fill="white" stroke="white" stroke-width="0.6"/>
</svg>
