<svg width="20" height="20" viewBox="0 0 20 20" fill="none" xmlns="http://www.w3.org/2000/svg">
<path d="M10 15.8C14.9707 15.8 19 10.4 19 10.4C19 10.4 14.9707 5 10 5C5.0293 5 1 10.4 1 10.4C1 10.4 5.0293 15.8 10 15.8Z" stroke="white" stroke-width="1.6" stroke-linejoin="round"/>
<path d="M10 12.65C10.5967 12.65 11.169 12.4129 11.591 11.991C12.0129 11.569 12.25 10.9967 12.25 10.4C12.25 9.80326 12.0129 9.23096 11.591 8.80901C11.169 8.38705 10.5967 8.15 10 8.15C9.40326 8.15 8.83097 8.38705 8.40901 8.80901C7.98705 9.23096 7.75 9.80326 7.75 10.4C7.75 10.9967 7.98705 11.569 8.40901 11.991C8.83097 12.4129 9.40326 12.65 10 12.65Z" stroke="white" stroke-width="1.6" stroke-linejoin="round"/>
</svg>
