<svg width="44" height="44" viewBox="0 0 44 44" fill="none" xmlns="http://www.w3.org/2000/svg">
<rect width="44" height="44" rx="22" fill="#3366DD"/>
<path d="M24 27V17C24 16.45 24.196 15.979 24.588 15.587C24.98 15.195 25.4507 14.9993 26 15C26.55 15 27.021 15.196 27.413 15.588C27.805 15.98 28.0007 16.4507 28 17V27C28 27.55 27.804 28.021 27.412 28.413C27.02 28.805 26.5493 29.0007 26 29C25.45 29 24.979 28.804 24.587 28.412C24.195 28.02 23.9993 27.5493 24 27ZM16 27V17C16 16.45 16.196 15.979 16.588 15.587C16.98 15.195 17.4507 14.9993 18 15C18.55 15 19.021 15.196 19.413 15.588C19.805 15.98 20.0007 16.4507 20 17V27C20 27.55 19.804 28.021 19.412 28.413C19.02 28.805 18.5493 29.0007 18 29C17.45 29 16.979 28.804 16.587 28.412C16.195 28.02 15.9993 27.5493 16 27Z" fill="white"/>
</svg>
