<svg width="20" height="20" viewBox="0 0 20 20" fill="none" xmlns="http://www.w3.org/2000/svg">
<path d="M3.7 7.3C3.7 5.62914 4.36375 4.02671 5.54523 2.84523C6.72671 1.66375 8.32914 1 10 1C11.6709 1 13.2733 1.66375 14.4548 2.84523C15.6363 4.02671 16.3 5.62914 16.3 7.3V8.2315C17.8264 8.4502 19 9.7633 19 11.35V11.575C19 13.1725 17.6221 14.5729 16.0012 14.4982C15.3352 16.4062 13.6414 17.6923 11.8135 18.0181C11.3905 18.1729 10.8901 18.1 10.45 18.1C10.092 18.1 9.74858 17.9578 9.49541 17.7046C9.24223 17.4514 9.1 17.108 9.1 16.75C9.1 16.392 9.24223 16.0486 9.49541 15.7954C9.74858 15.5422 10.092 15.4 10.45 15.4C11.1637 15.4 11.9539 15.2965 12.4363 15.9481C13.6027 15.3928 14.5 14.2201 14.5 12.7V7.3C14.5 6.10653 14.0259 4.96193 13.182 4.11802C12.3381 3.27411 11.1935 2.8 10 2.8C8.80653 2.8 7.66193 3.27411 6.81802 4.11802C5.97411 4.96193 5.5 6.10653 5.5 7.3V12.925C5.5 13.3427 5.33406 13.7433 5.03869 14.0387C4.74332 14.3341 4.34272 14.5 3.925 14.5C3.14924 14.5 2.40526 14.1918 1.85671 13.6433C1.30817 13.0947 1 12.3508 1 11.575V11.35C0.999806 10.5924 1.27266 9.8601 1.76856 9.28734C2.26445 8.71458 2.95016 8.33973 3.7 8.2315V7.3Z" fill="#3366DD"/>
</svg>
