<svg width="18" height="18" viewBox="0 0 18 18" fill="none" xmlns="http://www.w3.org/2000/svg">
<path d="M16.2316 6.4386H15.769L15.7933 4.7376C15.7904 4.63819 15.7521 4.54309 15.6853 4.4694L11.7109 0.1206C11.679 0.0841164 11.6399 0.0545846 11.5961 0.0338384C11.5523 0.0130921 11.5047 0.00157428 11.4562 0L3.14021 0C2.95376 0.00299345 2.77574 0.0782111 2.64362 0.209819C2.51151 0.341427 2.43562 0.519159 2.43191 0.7056V6.4386H1.96841C1.71191 6.4386 1.46441 6.5448 1.28441 6.7338C1.10076 6.92589 0.998801 7.18174 1.00001 7.4475V12.6945C1.00001 13.2507 1.43381 13.7025 1.96841 13.7025H2.43191V17.2935C2.4354 17.4804 2.51144 17.6586 2.64396 17.7905C2.77648 17.9223 2.95509 17.9975 3.14201 18H15.0922C15.4657 18 15.7942 17.6832 15.7942 17.2944V13.7034H16.2325C16.7671 13.7034 17.2009 13.2507 17.2009 12.6936V7.4466C17.2009 7.1802 17.0992 6.9228 16.9174 6.7338C16.8292 6.64098 16.7232 6.56698 16.6056 6.51624C16.488 6.46551 16.3614 6.4391 16.2334 6.4386H16.2316ZM3.65501 1.2402H9.91541V5.3595C9.91506 5.45225 9.95053 5.54156 10.0144 5.6088C10.0454 5.64138 10.0827 5.66735 10.124 5.68514C10.1653 5.70293 10.2097 5.71217 10.2547 5.7123H14.5378V6.4386H3.65501V1.2402ZM3.65501 16.7598V13.7025H14.5378V16.7598H3.65501ZM11.1619 1.368L11.5084 1.7586L13.8304 4.3263L13.9591 4.482H11.5858C11.4058 4.482 11.2933 4.4523 11.2456 4.392C11.1979 4.3335 11.17 4.239 11.1619 4.1103V1.368ZM2.80001 12.8088V7.4088H4.52621C5.17961 7.4088 5.60621 7.4358 5.80421 7.4898C6.11021 7.5708 6.36581 7.7472 6.57191 8.019C6.77711 8.2899 6.88061 8.64 6.88061 9.0702C6.88061 9.4014 6.82121 9.6804 6.70241 9.9072C6.58361 10.1322 6.43241 10.3095 6.24971 10.4382C6.08271 10.5601 5.89297 10.6473 5.69171 10.6947C5.43521 10.746 5.06351 10.7721 4.57661 10.7721H3.87551V12.8088H2.80001ZM3.87551 8.3223V9.855H4.46411C4.88801 9.855 5.17151 9.8262 5.31461 9.7704C5.45292 9.7182 5.5714 9.62397 5.65341 9.50097C5.73541 9.37796 5.77682 9.23235 5.77181 9.0846C5.77838 8.9068 5.71727 8.73312 5.60081 8.5986C5.48844 8.47173 5.33596 8.38723 5.16881 8.3592C5.04101 8.3349 4.78271 8.3232 4.39481 8.3232H3.87551V8.3223ZM7.51151 7.4088H9.47711C9.92081 7.4088 10.2583 7.443 10.4914 7.5123C10.8037 7.605 11.071 7.7715 11.2942 8.0091C11.5165 8.2476 11.6866 8.5392 11.8027 8.8839C11.9197 9.2295 11.9773 9.6543 11.9773 10.1601C11.9773 10.6047 11.9233 10.9881 11.8135 11.3094C11.6803 11.7027 11.4895 12.0204 11.2429 12.2634C11.0566 12.4479 10.8046 12.5919 10.4869 12.6954C10.2502 12.771 9.93251 12.8088 9.53561 12.8088H7.51151V7.4088ZM8.58701 8.3223V11.8989H9.38981C9.69041 11.8989 9.90731 11.8818 10.0405 11.8476C10.2151 11.8026 10.36 11.7288 10.4743 11.6226C10.5895 11.5173 10.684 11.3436 10.756 11.1015C10.8289 10.8594 10.8649 10.53 10.8649 10.1124C10.8649 9.6948 10.8289 9.3744 10.7569 9.1512C10.6997 8.95427 10.5946 8.7746 10.4509 8.6283C10.312 8.49865 10.1396 8.41043 9.95321 8.3736C9.80291 8.3394 9.50861 8.3223 9.07121 8.3223H8.58701ZM12.6487 12.8088V7.4088H16.3V8.3223H13.7242V9.6003H15.9472V10.5138H13.7242V12.8088H12.6487Z" fill="#3366DD"/>
</svg>
