<svg width="30" height="30" viewBox="0 0 30 30" fill="none" xmlns="http://www.w3.org/2000/svg">
<path fill-rule="evenodd" clip-rule="evenodd" d="M4.29973 1.89284C4.60594 1.58708 4.97365 1.34989 5.37847 1.19699C5.78329 1.04409 6.21598 0.978966 6.64788 1.00594C7.07977 1.03291 7.501 1.15136 7.88365 1.35344C8.2663 1.55552 8.60164 1.83662 8.86743 2.1781L12.0088 6.21379C12.5846 6.95407 12.7876 7.91837 12.5601 8.82841L11.6028 12.6611C11.5533 12.8596 11.556 13.0675 11.6106 13.2647C11.6652 13.4619 11.7698 13.6416 11.9143 13.7864L16.2143 18.0863C16.3592 18.2312 16.5392 18.336 16.7368 18.3906C16.9343 18.4452 17.1426 18.4477 17.3413 18.3978L21.1722 17.4406C21.6213 17.3283 22.0901 17.3195 22.5431 17.415C22.996 17.5106 23.4213 17.7078 23.7869 17.9918L27.8226 21.1315C29.2734 22.2603 29.4064 24.4041 28.1078 25.7009L26.2982 27.5105C25.0032 28.8056 23.0676 29.3743 21.2633 28.7391C16.6451 27.1142 12.4521 24.4703 8.99519 21.0037C5.52879 17.5473 2.88497 13.3549 1.25984 8.7374C0.626307 6.93482 1.19508 4.99748 2.49014 3.70242L4.29973 1.89284Z" fill="white"/>
</svg>
