<svg width="21" height="21" viewBox="0 0 21 21" fill="none" xmlns="http://www.w3.org/2000/svg">
<g clip-path="url(#clip0_64_15614)">
<path d="M19.2084 12.7694V17.2556C19.2084 18.4103 18.3777 19.4047 17.2324 19.5567C15.0294 19.8491 12.7822 20 10.5001 20C8.21795 20 5.97067 19.8491 3.76773 19.5567C2.62245 19.4047 1.79172 18.4103 1.79172 17.2556V12.7694M19.2084 12.7694C19.459 12.5516 19.6596 12.2821 19.7962 11.9795C19.9329 11.6769 20.0024 11.3482 20.0001 11.0162V7.023C20.0001 5.88194 19.1894 4.89606 18.061 4.72717C16.8654 4.54816 15.6637 4.41191 14.4584 4.31867M19.2084 12.7694C19.0036 12.9436 18.7651 13.0808 18.498 13.1706C15.9185 14.0264 13.2179 14.4613 10.5001 14.4583C7.78226 14.4609 5.08176 14.0261 2.50211 13.1706C2.24166 13.0839 2.00044 12.9477 1.79172 12.7694M1.79172 12.7694C1.54108 12.5516 1.34054 12.2821 1.20388 11.9795C1.06723 11.6769 0.997697 11.3482 1.00006 11.0162V7.023C1.00006 5.88194 1.81072 4.89606 2.93911 4.72717C4.13474 4.54816 5.33638 4.41191 6.54173 4.31867M14.4584 4.31867V3.375C14.4584 2.74511 14.2082 2.14102 13.7628 1.69562C13.3174 1.25022 12.7133 1 12.0834 1H8.91673C8.28684 1 7.68275 1.25022 7.23735 1.69562C6.79195 2.14102 6.54173 2.74511 6.54173 3.375V4.31867M14.4584 4.31867C11.8234 4.11503 9.17669 4.11503 6.54173 4.31867M10.5001 11.2917H10.5085V11.3001H10.5001V11.2917Z" stroke="#3366DD" stroke-width="1.5" stroke-linecap="round" stroke-linejoin="round"/>
</g>
<defs>
<clipPath id="clip0_64_15614">
<rect width="21" height="21" fill="white"/>
</clipPath>
</defs>
</svg>
