<svg width="20" height="20" viewBox="0 0 20 20" fill="none" xmlns="http://www.w3.org/2000/svg">
<g clip-path="url(#clip0_64_10993)">
<path d="M10 0C4.47768 0 0 4.47768 0 10C0 15.5223 4.47768 20 10 20C15.5223 20 20 15.5223 20 10C20 4.47768 15.5223 0 10 0ZM10 18.3036C5.41518 18.3036 1.69643 14.5848 1.69643 10C1.69643 5.41518 5.41518 1.69643 10 1.69643C14.5848 1.69643 18.3036 5.41518 18.3036 10C18.3036 14.5848 14.5848 18.3036 10 18.3036ZM12.6272 5.16518C12.2723 5.08705 11.8594 5.04464 11.3929 5.04464C9.01116 5.04464 7.39955 6.28795 6.95982 8.39062H6.25C6.15179 8.39062 6.07143 8.47098 6.07143 8.5692V9.17634C6.07143 9.27455 6.15179 9.35491 6.25 9.35491H6.83929C6.83259 9.44643 6.83259 9.54241 6.83259 9.64062V10.4643H6.25C6.15179 10.4643 6.07143 10.5446 6.07143 10.6429V11.25C6.07143 11.3482 6.15179 11.4286 6.25 11.4286H6.92411C7.30804 13.6429 8.94197 14.9554 11.3929 14.9554C11.8594 14.9554 12.2723 14.9174 12.6272 14.8415C12.7098 14.8237 12.7701 14.7522 12.7701 14.6674V13.7121C12.7701 13.6004 12.6674 13.5156 12.558 13.5379C12.2299 13.6004 11.846 13.6295 11.4018 13.6295C9.87277 13.6295 8.84598 12.8125 8.50446 11.4286H11.4196C11.5179 11.4286 11.5982 11.3482 11.5982 11.25V10.6429C11.5982 10.5446 11.5179 10.4643 11.4196 10.4643H8.375V9.66071C8.375 9.5558 8.375 9.45089 8.3817 9.35268H11.4152C11.5134 9.35268 11.5938 9.27232 11.5938 9.17411V8.56696C11.5938 8.46875 11.5134 8.38839 11.4152 8.38839H8.55134C8.93527 7.1183 9.94197 6.37054 11.3996 6.37054C11.8438 6.37054 12.2277 6.40402 12.5536 6.46875C12.5794 6.47403 12.6062 6.47351 12.6318 6.46722C12.6575 6.46093 12.6814 6.44903 12.7019 6.43238C12.7224 6.41573 12.7389 6.39473 12.7503 6.37092C12.7617 6.3471 12.7677 6.32105 12.7679 6.29464V5.33929C12.7679 5.25446 12.7098 5.18304 12.6272 5.16518Z" fill="#3366DD"/>
</g>
<defs>
<clipPath id="clip0_64_10993">
<rect width="20" height="20" fill="white"/>
</clipPath>
</defs>
</svg>
