<svg width="24" height="24" viewBox="0 0 24 24" fill="none" xmlns="http://www.w3.org/2000/svg">
<path d="M11.9999 5.71428C11.2229 5.71428 10.4633 5.94469 9.81726 6.37636C9.17121 6.80804 8.66768 7.4216 8.37034 8.13945C8.07299 8.8573 7.99519 9.64721 8.14678 10.4093C8.29836 11.1713 8.67252 11.8713 9.22194 12.4208C9.77136 12.9702 10.4714 13.3443 11.2334 13.4959C11.9955 13.6475 12.7854 13.5697 13.5033 13.2724C14.2211 12.975 14.8347 12.4715 15.2663 11.8254C15.698 11.1794 15.9284 10.4198 15.9284 9.64285C15.9284 8.60093 15.5145 7.60168 14.7778 6.86493C14.041 6.12818 13.0418 5.71428 11.9999 5.71428ZM11.9999 12C11.5337 12 11.0779 11.8617 10.6903 11.6027C10.3027 11.3437 10.0006 10.9756 9.82215 10.5449C9.64374 10.1142 9.59706 9.64023 9.68801 9.18299C9.77896 8.72575 10.0035 8.30575 10.3331 7.9761C10.6628 7.64645 11.0828 7.42195 11.54 7.331C11.9972 7.24005 12.4712 7.28673 12.9019 7.46513C13.3326 7.64354 13.7007 7.94566 13.9598 8.33329C14.2188 8.72092 14.357 9.17665 14.357 9.64285C14.3564 10.2678 14.1078 10.867 13.6659 11.3089C13.224 11.7508 12.6248 11.9994 11.9999 12Z" fill="white"/>
<path d="M12 1C9.82441 1 7.69767 1.64514 5.88873 2.85383C4.07979 4.06253 2.66989 5.78049 1.83733 7.79048C1.00477 9.80047 0.786929 12.0122 1.21137 14.146C1.6358 16.2798 2.68345 18.2398 4.22183 19.7782C5.76021 21.3165 7.72022 22.3642 9.85401 22.7886C11.9878 23.2131 14.1995 22.9952 16.2095 22.1627C18.2195 21.3301 19.9375 19.9202 21.1462 18.1113C22.3549 16.3023 23 14.1756 23 12C22.9967 9.08364 21.8367 6.28768 19.7745 4.2255C17.7123 2.16332 14.9164 1.00333 12 1ZM7.28572 20.1534V19.0714C7.28634 18.4465 7.53488 17.8473 7.9768 17.4054C8.41871 16.9634 9.0179 16.7149 9.64286 16.7143H14.3571C14.9821 16.7149 15.5813 16.9634 16.0232 17.4054C16.4651 17.8473 16.7137 18.4465 16.7143 19.0714V20.1534C15.2836 20.9887 13.6567 21.4289 12 21.4289C10.3433 21.4289 8.71637 20.9887 7.28572 20.1534ZM18.2794 19.0133C18.2638 17.9827 17.8439 16.9995 17.1102 16.2755C16.3766 15.5516 15.3879 15.1448 14.3571 15.1429H9.64286C8.61215 15.1448 7.62345 15.5516 6.88979 16.2755C6.15613 16.9995 5.73623 17.9827 5.72058 19.0133C4.29573 17.741 3.29094 16.066 2.83923 14.2099C2.38753 12.3539 2.51023 10.4045 3.19108 8.61974C3.87193 6.83501 5.07882 5.29917 6.65194 4.21559C8.22506 3.13201 10.0902 2.55181 12.0004 2.55181C13.9106 2.55181 15.7757 3.13201 17.3489 4.21559C18.922 5.29917 20.1289 6.83501 20.8097 8.61974C21.4906 10.4045 21.6133 12.3539 21.1616 14.2099C20.7099 16.066 19.7051 17.741 18.2802 19.0133H18.2794Z" fill="white"/>
</svg>
