<svg width="24" height="24" viewBox="0 0 24 24" fill="none" xmlns="http://www.w3.org/2000/svg">
<path d="M15.3745 20.9874C15.4195 21.3248 15.307 21.6848 15.0483 21.921C14.9443 22.0253 14.8207 22.108 14.6846 22.1644C14.5485 22.2209 14.4026 22.2499 14.2553 22.2499C14.108 22.2499 13.9621 22.2209 13.826 22.1644C13.69 22.108 13.5664 22.0253 13.4623 21.921L8.95167 17.4104C8.82899 17.2904 8.73571 17.1438 8.67912 16.9818C8.62253 16.8198 8.60417 16.647 8.62547 16.4767V10.7175L3.23746 3.82225C3.0548 3.58775 2.97238 3.29049 3.00821 2.99541C3.04404 2.70033 3.19521 2.43143 3.42869 2.24747C3.64241 2.08999 3.87862 2 4.12609 2H19.8739C20.1214 2 20.3576 2.08999 20.5713 2.24747C20.8048 2.43143 20.956 2.70033 20.9918 2.99541C21.0276 3.29049 20.9452 3.58775 20.7625 3.82225L15.3745 10.7175V20.9874ZM6.42077 4.24969L10.8752 9.9414V16.1505L13.1248 18.4002V9.93015L17.5792 4.24969H6.42077Z" fill="#F5A303"/>
</svg>
