<svg width="20" height="20" viewBox="0 0 20 20" fill="none" xmlns="http://www.w3.org/2000/svg">
<g clip-path="url(#clip0_64_10999)">
<path d="M9.99986 6.9999C9.73465 6.9999 9.4803 7.10526 9.29276 7.29279C9.10523 7.48033 8.99987 7.73468 8.99987 7.99989V10.9998C8.99987 11.2651 9.10523 11.5194 9.29276 11.7069C9.4803 11.8945 9.73465 11.9998 9.99986 11.9998C10.2651 11.9998 10.5194 11.8945 10.707 11.7069C10.8945 11.5194 10.9998 11.2651 10.9998 10.9998V7.99989C10.9998 7.73468 10.8945 7.48033 10.707 7.29279C10.5194 7.10526 10.2651 6.9999 9.99986 6.9999ZM16.9998 0H2.99996C2.20432 0 1.44127 0.316066 0.878667 0.878667C0.316066 1.44127 0 2.20432 0 2.99996V12.9998C0 13.7955 0.316066 14.5585 0.878667 15.1211C1.44127 15.6837 2.20432 15.9998 2.99996 15.9998H14.5898L18.2897 19.7097C18.3832 19.8024 18.494 19.8757 18.6158 19.9255C18.7377 19.9753 18.8681 20.0005 18.9997 19.9997C19.1309 20.0031 19.2611 19.9757 19.3797 19.9197C19.5623 19.8447 19.7187 19.7173 19.829 19.5536C19.9393 19.3899 19.9987 19.1972 19.9997 18.9997V2.99996C19.9997 2.20432 19.6837 1.44127 19.1211 0.878667C18.5585 0.316066 17.7954 0 16.9998 0ZM17.9997 16.5898L15.7098 14.2898C15.6163 14.1971 15.5055 14.1238 15.3837 14.074C15.2619 14.0243 15.1314 13.999 14.9998 13.9998H2.99996C2.73475 13.9998 2.4804 13.8944 2.29286 13.7069C2.10533 13.5194 1.99997 13.265 1.99997 12.9998V2.99996C1.99997 2.73475 2.10533 2.4804 2.29286 2.29286C2.4804 2.10533 2.73475 1.99997 2.99996 1.99997H16.9998C17.265 1.99997 17.5193 2.10533 17.7069 2.29286C17.8944 2.4804 17.9997 2.73475 17.9997 2.99996V16.5898ZM9.99986 3.99994C9.80208 3.99994 9.60874 4.05859 9.4443 4.16847C9.27985 4.27835 9.15168 4.43453 9.07599 4.61725C9.00031 4.79998 8.9805 5.00104 9.01909 5.19502C9.05767 5.389 9.15291 5.56718 9.29276 5.70703C9.43261 5.84688 9.6108 5.94212 9.80477 5.9807C9.99875 6.01929 10.1998 5.99948 10.3825 5.9238C10.5653 5.84811 10.7214 5.71994 10.8313 5.55549C10.9412 5.39105 10.9998 5.19771 10.9998 4.99993C10.9998 4.73472 10.8945 4.48037 10.707 4.29283C10.5194 4.1053 10.2651 3.99994 9.99986 3.99994Z" fill="#3366DD"/>
</g>
<defs>
<clipPath id="clip0_64_10999">
<rect width="20" height="20" fill="white"/>
</clipPath>
</defs>
</svg>
