<svg width="15" height="15" viewBox="0 0 15 15" fill="none" xmlns="http://www.w3.org/2000/svg">
<path d="M8.81763 1.90533C8.83528 1.83933 8.86576 1.77746 8.90734 1.72325C8.94891 1.66905 9.00075 1.62356 9.05991 1.58939C9.11906 1.55523 9.18437 1.53305 9.2521 1.52413C9.31983 1.51522 9.38865 1.51973 9.45464 1.53742C10.4186 1.78894 11.2982 2.29289 12.0026 2.99736C12.7071 3.70183 13.2111 4.58136 13.4626 5.54536C13.4803 5.61135 13.4848 5.68017 13.4759 5.7479C13.4669 5.81563 13.4448 5.88094 13.4106 5.94009C13.3764 5.99925 13.331 6.05109 13.2767 6.09266C13.2225 6.13424 13.1607 6.16472 13.0947 6.18237C13.0507 6.19391 13.0055 6.1998 12.9601 6.19992C12.8455 6.19992 12.7342 6.16206 12.6433 6.09224C12.5524 6.02242 12.4872 5.92454 12.4577 5.81382C12.2525 5.02687 11.8412 4.30886 11.2662 3.73381C10.6911 3.15876 9.97313 2.74747 9.18618 2.54233C9.12013 2.52475 9.05819 2.49432 9.00391 2.45278C8.94963 2.41124 8.90407 2.3594 8.86984 2.30024C8.83561 2.24108 8.81338 2.17574 8.80442 2.10798C8.79546 2.04022 8.79995 1.97135 8.81763 1.90533ZM8.66618 4.62235C9.56254 4.86156 10.1384 5.43746 10.3776 6.33382C10.4072 6.44455 10.4724 6.54242 10.5633 6.61225C10.6541 6.68207 10.7655 6.71992 10.8801 6.71992C10.9255 6.71981 10.9707 6.71391 11.0147 6.70237C11.0806 6.68472 11.1425 6.65424 11.1967 6.61267C11.2509 6.5711 11.2964 6.51925 11.3306 6.4601C11.3648 6.40094 11.3869 6.33563 11.3958 6.2679C11.4048 6.20017 11.4002 6.13135 11.3826 6.06537C11.0498 4.81996 10.18 3.95025 8.93463 3.61744C8.86865 3.59982 8.79984 3.59536 8.73213 3.60432C8.66443 3.61329 8.59915 3.6355 8.54003 3.6697C8.48091 3.70389 8.4291 3.74939 8.38756 3.80361C8.34603 3.85782 8.31558 3.91969 8.29795 3.98567C8.28032 4.05166 8.27587 4.12046 8.28483 4.18817C8.2938 4.25588 8.31601 4.32115 8.3502 4.38028C8.3844 4.4394 8.4299 4.4912 8.48412 4.53274C8.53833 4.57428 8.6002 4.60473 8.66618 4.62235ZM13.9923 10.8202C13.8764 11.7009 13.4439 12.5094 12.7755 13.0946C12.107 13.6797 11.2485 14.0016 10.3601 14C5.19905 14 1.00001 9.80095 1.00001 4.6399C0.998413 3.75153 1.32026 2.89296 1.90542 2.22454C2.49059 1.55612 3.29906 1.12357 4.17984 1.00767C4.40256 0.980473 4.62811 1.02604 4.82281 1.13756C5.01752 1.24909 5.17093 1.42059 5.26015 1.62647L6.63296 4.69125V4.69905C6.70127 4.85665 6.72948 5.02871 6.71507 5.19987C6.70067 5.37103 6.6441 5.53595 6.55041 5.67991C6.53871 5.69746 6.52636 5.71371 6.51336 5.72996L5.16005 7.33418C5.6469 8.32349 6.68171 9.3492 7.68402 9.83735L9.26614 8.49119C9.28167 8.47813 9.29795 8.46598 9.31489 8.45479C9.45873 8.35885 9.62422 8.30029 9.79639 8.2844C9.96856 8.26851 10.142 8.2958 10.3009 8.36379L10.3094 8.36769L13.3716 9.73985C13.5778 9.82876 13.7497 9.98203 13.8616 10.1768C13.9735 10.3715 14.0194 10.5972 13.9923 10.8202ZM12.9601 10.6902H12.953L9.89794 9.3219L8.31518 10.6681C8.29982 10.6811 8.28376 10.6932 8.26708 10.7045C8.11742 10.8043 7.94441 10.8636 7.76497 10.8766C7.58553 10.8896 7.40579 10.8558 7.24332 10.7786C6.02585 10.1903 4.81229 8.98585 4.22339 7.78138C4.1454 7.62009 4.11041 7.44138 4.1218 7.26259C4.13319 7.08379 4.19057 6.91097 4.28839 6.76087C4.29941 6.74325 4.3118 6.72652 4.32544 6.71082L5.68005 5.10466L4.31504 2.04963C4.31478 2.04704 4.31478 2.04442 4.31504 2.04183C3.6847 2.12405 3.10595 2.43324 2.68717 2.91148C2.26839 3.38972 2.03831 4.00422 2.04002 4.6399C2.04242 6.84579 2.91978 8.96063 4.47957 10.5204C6.03937 12.0802 8.15421 12.9576 10.3601 12.96C10.9954 12.9622 11.6097 12.7329 12.0882 12.315C12.5668 11.8972 12.8767 11.3193 12.9601 10.6895V10.6902Z" fill="white"/>
</svg>
