<svg width="20" height="20" viewBox="0 0 20 20" fill="none" xmlns="http://www.w3.org/2000/svg">
<g clip-path="url(#clip0_64_10987)">
<path d="M12.1581 0.925492C11.9673 0.662885 11.7219 0.444769 11.4387 0.286182C11.1555 0.127596 10.8413 0.0323095 10.5177 0.00689312C10.1941 -0.0185233 9.86884 0.0265345 9.56435 0.13896C9.25986 0.251386 8.98337 0.428506 8.75394 0.658109L5.29792 4.11513C5.06304 4.34992 4.88319 4.63389 4.77132 4.94659C4.65945 5.25928 4.61835 5.59289 4.65099 5.92339C4.68363 6.25388 4.78919 6.57301 4.96006 6.85778C5.13094 7.14255 5.36287 7.38586 5.63913 7.57016L7.6445 8.90608L0.787324 15.6336C0.544038 15.8627 0.349074 16.1382 0.213921 16.4438C0.0787674 16.7495 0.00615952 17.0791 0.000375162 17.4132C-0.0054092 17.7474 0.0557471 18.0793 0.18024 18.3894C0.304734 18.6996 0.490045 18.9817 0.725255 19.2191C0.960466 19.4565 1.24082 19.6444 1.54979 19.7718C1.85876 19.8992 2.1901 19.9634 2.52428 19.9607C2.85846 19.958 3.18873 19.8885 3.49562 19.7562C3.80251 19.6239 4.07982 19.4315 4.31119 19.1904L11.1674 12.3342L12.3806 14.2398C12.561 14.5236 12.8028 14.7632 13.0882 14.941C13.3736 15.1188 13.6954 15.2302 14.0296 15.267C14.3639 15.3038 14.7021 15.265 15.0194 15.1535C15.3366 15.042 15.6248 14.8607 15.8625 14.6229L19.2906 11.1948C19.5201 10.9654 19.697 10.689 19.8094 10.3846C19.9217 10.0802 19.9667 9.75506 19.9413 9.4316C19.9159 9.10815 19.8206 8.79404 19.6621 8.51093C19.5037 8.22782 19.2857 7.98242 19.0233 7.79165L15.1442 4.97016C15.0806 4.92399 15.0248 4.8681 14.9786 4.80454L12.1581 0.925492ZM9.8135 1.71567C9.89001 1.6394 9.98213 1.58061 10.0835 1.54333C10.1849 1.50604 10.2932 1.49115 10.4009 1.49969C10.5086 1.50822 10.6131 1.53997 10.7074 1.59275C10.8016 1.64553 10.8833 1.7181 10.9469 1.80546L11.4058 2.43601L7.09776 6.74207L6.46921 6.32304C6.37718 6.2616 6.29992 6.18051 6.243 6.08562C6.18608 5.99073 6.15092 5.88439 6.14004 5.77427C6.12916 5.66415 6.14284 5.55299 6.18009 5.44879C6.21735 5.34459 6.27725 5.24996 6.35548 5.1717L9.8125 1.71467L9.8135 1.71567ZM8.36684 7.59012L12.2968 3.66118L13.7684 5.68451C13.9071 5.87408 14.0737 6.04169 14.2632 6.18037L16.2187 7.60009L12.3756 11.4422L11.324 9.78904C11.1563 9.5255 10.9354 9.29987 10.6755 9.12657L8.36684 7.59012ZM13.1977 12.7372L17.4429 8.49204L18.1433 9.00086C18.231 9.06439 18.3038 9.1462 18.3568 9.24063C18.4098 9.33507 18.4417 9.43988 18.4502 9.54783C18.4588 9.65578 18.4438 9.76429 18.4063 9.86588C18.3688 9.96747 18.3097 10.0597 18.2331 10.1362L14.804 13.5643C14.7248 13.6436 14.6288 13.704 14.5232 13.7412C14.4175 13.7785 14.3048 13.7915 14.1934 13.7793C14.0821 13.7671 13.9748 13.7301 13.8797 13.671C13.7845 13.6118 13.7039 13.5321 13.6437 13.4376L13.1977 12.7372ZM10.3443 11.0412L3.25264 18.1328C3.15982 18.2311 3.04816 18.3098 2.92431 18.3641C2.80045 18.4184 2.66693 18.4472 2.53171 18.4488C2.39649 18.4504 2.26233 18.4248 2.13722 18.3734C2.01211 18.3221 1.89862 18.2461 1.8035 18.15C1.70838 18.0539 1.63358 17.9396 1.58356 17.8139C1.53354 17.6883 1.50932 17.5539 1.51234 17.4187C1.51537 17.2835 1.54557 17.1503 1.60116 17.027C1.65675 16.9037 1.73658 16.7929 1.8359 16.7011L8.91557 9.75412L9.84343 10.3727C9.93025 10.4306 10.004 10.5061 10.0599 10.5942L10.3443 11.0402V11.0412ZM12.7667 16.9086C12.5682 16.9086 12.3779 16.9875 12.2376 17.1278C12.0972 17.2681 12.0184 17.4584 12.0184 17.6569C12.0184 17.8553 12.0972 18.0457 12.2376 18.186C12.3779 18.3263 12.5682 18.4052 12.7667 18.4052H10.7713C10.5728 18.4052 10.3825 18.484 10.2422 18.6243C10.1019 18.7647 10.023 18.955 10.023 19.1534C10.023 19.3519 10.1019 19.5422 10.2422 19.6826C10.3825 19.8229 10.5728 19.9017 10.7713 19.9017H19.2517C19.4502 19.9017 19.6405 19.8229 19.7808 19.6826C19.9212 19.5422 20 19.3519 20 19.1534C20 18.955 19.9212 18.7647 19.7808 18.6243C19.6405 18.484 19.4502 18.4052 19.2517 18.4052H17.2563C17.4548 18.4052 17.6451 18.3263 17.7854 18.186C17.9258 18.0457 18.0046 17.8553 18.0046 17.6569C18.0046 17.4584 17.9258 17.2681 17.7854 17.1278C17.6451 16.9875 17.4548 16.9086 17.2563 16.9086H12.7667Z" fill="#3366DD"/>
</g>
<defs>
<clipPath id="clip0_64_10987">
<rect width="20" height="20" fill="white"/>
</clipPath>
</defs>
</svg>
