<svg width="24" height="24" viewBox="0 0 24 24" fill="none" xmlns="http://www.w3.org/2000/svg">
<path d="M19.6956 11.5332H5.773L10.0343 7.11695C10.2336 6.9101 10.3294 6.64342 10.3008 6.37558C10.2722 6.10775 10.1214 5.86069 9.8817 5.68876C9.64196 5.51684 9.3329 5.43412 9.02248 5.45881C8.71207 5.48351 8.42574 5.61359 8.22648 5.82044L2.35691 11.8978C2.31742 11.9462 2.28211 11.9969 2.25126 12.0498C2.25126 12.1004 2.25126 12.1308 2.16909 12.1814C2.11588 12.2976 2.08802 12.4212 2.08691 12.5461C2.08802 12.671 2.11588 12.7946 2.16909 12.9107C2.16909 12.9614 2.16909 12.9917 2.25126 13.0424C2.28211 13.0952 2.31742 13.146 2.35691 13.1943L8.22648 19.2717C8.33685 19.386 8.47507 19.478 8.6313 19.541C8.78753 19.604 8.95793 19.6366 9.13039 19.6363C9.40468 19.6368 9.6705 19.5544 9.8817 19.4034C10.0006 19.3183 10.0988 19.2139 10.1708 19.0961C10.2429 18.9782 10.2872 18.8493 10.3014 18.7166C10.3156 18.5839 10.2993 18.4502 10.2535 18.3229C10.2076 18.1957 10.1332 18.0775 10.0343 17.9752L5.773 13.559H19.6956C20.007 13.559 20.3055 13.4523 20.5257 13.2623C20.7458 13.0723 20.8695 12.8147 20.8695 12.5461C20.8695 12.2774 20.7458 12.0198 20.5257 11.8298C20.3055 11.6399 20.007 11.5332 19.6956 11.5332Z" fill="#3366DD"/>
</svg>
