<svg width="24" height="24" viewBox="0 0 24 24" fill="none" xmlns="http://www.w3.org/2000/svg">
<path fill-rule="evenodd" clip-rule="evenodd" d="M2 4.42857C2 4.04969 2.15051 3.68633 2.41842 3.41842C2.68633 3.15051 3.04969 3 3.42857 3H20.5714C20.9503 3 21.3137 3.15051 21.5816 3.41842C21.8495 3.68633 22 4.04969 22 4.42857C22 4.80745 21.8495 5.17081 21.5816 5.43872C21.3137 5.70663 20.9503 5.85714 20.5714 5.85714H3.42857C3.04969 5.85714 2.68633 5.70663 2.41842 5.43872C2.15051 5.17081 2 4.80745 2 4.42857ZM2 11.5714C2 11.1925 2.15051 10.8292 2.41842 10.5613C2.68633 10.2934 3.04969 10.1429 3.42857 10.1429H20.5714C20.9503 10.1429 21.3137 10.2934 21.5816 10.5613C21.8495 10.8292 22 11.1925 22 11.5714C22 11.9503 21.8495 12.3137 21.5816 12.5816C21.3137 12.8495 20.9503 13 20.5714 13H3.42857C3.04969 13 2.68633 12.8495 2.41842 12.5816C2.15051 12.3137 2 11.9503 2 11.5714ZM2 18.7143C2 18.3354 2.15051 17.972 2.41842 17.7041C2.68633 17.4362 3.04969 17.2857 3.42857 17.2857H12C12.3789 17.2857 12.7422 17.4362 13.0102 17.7041C13.2781 17.972 13.4286 18.3354 13.4286 18.7143C13.4286 19.0932 13.2781 19.4565 13.0102 19.7244C12.7422 19.9923 12.3789 20.1429 12 20.1429H3.42857C3.04969 20.1429 2.68633 19.9923 2.41842 19.7244C2.15051 19.4565 2 19.0932 2 18.7143Z" fill="white"/>
</svg>
