<svg width="21" height="21" viewBox="0 0 21 21" fill="none" xmlns="http://www.w3.org/2000/svg">
<path d="M11.184 1.68487V3.28291H12.9875C13.3081 3.28291 13.6213 3.37971 13.8861 3.5596L15.4357 4.6134C15.4732 4.63897 15.5179 4.65266 15.5636 4.65266H19.3094C19.491 4.65266 19.6652 4.72482 19.7937 4.85326C19.9221 4.9817 19.9943 5.1559 19.9943 5.33754C19.9943 5.51918 19.9221 5.69338 19.7937 5.82182C19.6652 5.95026 19.491 6.02241 19.3094 6.02241H17.8684L20.9421 13.0355C21.0038 13.1757 21.0166 13.3326 20.9785 13.4809C20.9404 13.6293 20.8537 13.7606 20.7321 13.8537C20.6408 13.9213 20.5467 13.9843 20.449 14.0418C20.2174 14.1801 19.9763 14.3018 19.7276 14.4062C18.9016 14.7516 18.0149 14.9283 17.1196 14.9258C16.2247 14.9286 15.3382 14.7522 14.5125 14.4071C14.2637 14.3027 14.0226 14.1806 13.7911 14.0418C13.6942 13.9858 13.6006 13.9242 13.5108 13.8574L13.5062 13.8537C13.3847 13.7606 13.2979 13.6293 13.2598 13.4809C13.2217 13.3326 13.2345 13.1757 13.2962 13.0355L16.3717 6.02241H15.5627C15.2421 6.02241 14.9289 5.92562 14.6641 5.74572L13.1145 4.69193C13.0768 4.66617 13.0322 4.65247 12.9866 4.65266H11.184V17.8936H15.2814C15.4631 17.8936 15.6373 17.9657 15.7657 18.0942C15.8941 18.2226 15.9663 18.3968 15.9663 18.5784C15.9663 18.7601 15.8941 18.9343 15.7657 19.0627C15.6373 19.1912 15.4631 19.2633 15.2814 19.2633H5.71692C5.53528 19.2633 5.36108 19.1912 5.23264 19.0627C5.1042 18.9343 5.03204 18.7601 5.03204 18.5784C5.03204 18.3968 5.1042 18.2226 5.23264 18.0942C5.36108 17.9657 5.53528 17.8936 5.71692 17.8936H9.81429V4.65266H8.01079C7.9652 4.65264 7.92066 4.66632 7.88295 4.69193L6.33422 5.74572C6.0694 5.92562 5.75618 6.02241 5.43566 6.02241H4.6266L7.70214 13.0355C7.76167 13.1718 7.77524 13.3237 7.74081 13.4683C7.70638 13.613 7.62581 13.7425 7.51129 13.8373C7.43823 13.8966 7.36518 13.9523 7.22821 14.0409C6.99726 14.1905 6.75552 14.3226 6.50498 14.4363C5.68022 14.811 4.78458 15.0041 3.87871 15.0025C2.97281 15.0044 2.07711 14.8113 1.25245 14.4363C1.0019 14.3226 0.760161 14.1905 0.52922 14.0409C0.431563 13.9788 0.337367 13.9115 0.247052 13.8391C0.133434 13.7432 0.0535147 13.6135 0.0190053 13.4689C-0.0155042 13.3242 -0.00278903 13.1724 0.0552873 13.0355L3.12992 6.02241H1.68985C1.50821 6.02241 1.33401 5.95026 1.20557 5.82182C1.07714 5.69338 1.00498 5.51918 1.00498 5.33754C1.00498 5.1559 1.07714 4.9817 1.20557 4.85326C1.33401 4.72482 1.50821 4.65266 1.68985 4.65266H5.43566C5.48132 4.65266 5.52606 4.63897 5.56442 4.6134L7.11223 3.5596C7.37705 3.3788 7.69118 3.28291 8.0117 3.28291H9.81429V1.68487C9.81429 1.50323 9.88645 1.32903 10.0149 1.20059C10.1433 1.07216 10.3175 1 10.4992 1C10.6808 1 10.855 1.07216 10.9834 1.20059C11.1119 1.32903 11.184 1.50323 11.184 1.68487ZM1.54375 13.052C2.26245 13.4346 3.06452 13.6338 3.87871 13.6318C4.69291 13.6338 5.49498 13.4346 6.21368 13.052L3.87871 7.72821L1.54375 13.052ZM14.7938 13.03C14.8687 13.0666 14.9527 13.1058 15.0449 13.1451C15.5289 13.3487 16.2366 13.556 17.1196 13.556C17.9246 13.5583 18.7197 13.3785 19.4455 13.03L17.1196 7.72729L14.7938 13.03Z" fill="#3366DD"/>
</svg>
