<svg width="34" height="34" viewBox="0 0 34 34" fill="none" xmlns="http://www.w3.org/2000/svg">
<rect x="0.75" y="0.75" width="32.5" height="32.5" rx="16.25" fill="#3366DD" stroke="white" stroke-width="1.5"/>
<path d="M18.6045 9.08668C18.9312 9.08665 19.2522 9.17199 19.5358 9.33424C19.8194 9.49649 20.0556 9.73001 20.2212 10.0117L20.8995 11.1675H22.6253C23.3435 11.1675 24.0322 11.4527 24.5401 11.9605C25.048 12.4682 25.3334 13.1569 25.3337 13.875V21.7917C25.3337 22.1473 25.2636 22.4995 25.1275 22.8281C24.9914 23.1567 24.7919 23.4553 24.5404 23.7068C24.2889 23.9583 23.9903 24.1577 23.6618 24.2939C23.3332 24.43 22.981 24.5 22.6253 24.5H11.3753C10.657 24.5 9.96816 24.2147 9.46024 23.7068C8.95233 23.1988 8.66699 22.51 8.66699 21.7917V13.875C8.66699 13.1567 8.95233 12.4678 9.46024 11.9599C9.96816 11.452 10.657 11.1667 11.3753 11.1667H13.1087L13.8378 9.98001C14.0055 9.70686 14.2404 9.48125 14.52 9.32471C14.7997 9.16817 15.1148 9.08593 15.4353 9.08585H18.6045V9.08668ZM18.6045 10.3367H15.4353C15.3441 10.3368 15.2541 10.3568 15.1714 10.3954C15.0888 10.4339 15.0156 10.4901 14.957 10.56L14.9028 10.635L13.992 12.1183C13.9361 12.2094 13.8579 12.2847 13.7646 12.3369C13.6714 12.3892 13.5664 12.4166 13.4595 12.4167H11.3762C11.1846 12.4166 10.9949 12.4542 10.8178 12.5274C10.6408 12.6007 10.4799 12.7081 10.3444 12.8435C10.2089 12.979 10.1014 13.1398 10.0281 13.3167C9.95474 13.4937 9.91699 13.6834 9.91699 13.875V21.7917C9.91699 22.5967 10.5703 23.25 11.3753 23.25H22.6253C23.0121 23.25 23.383 23.0964 23.6565 22.8229C23.93 22.5494 24.0837 22.1785 24.0837 21.7917V13.875C24.0837 13.4882 23.93 13.1173 23.6565 12.8438C23.383 12.5703 23.0121 12.4167 22.6253 12.4167H20.542C20.433 12.4167 20.326 12.3883 20.2314 12.3342C20.1368 12.2801 20.058 12.2023 20.0028 12.1083L19.1428 10.6442C19.0877 10.5504 19.009 10.4726 18.9146 10.4185C18.8202 10.3644 18.7133 10.3359 18.6045 10.3358V10.3367ZM17.0003 13.6667C17.9949 13.6667 18.9487 14.0618 19.652 14.765C20.3552 15.4683 20.7503 16.4221 20.7503 17.4167C20.7503 18.4112 20.3552 19.3651 19.652 20.0683C18.9487 20.7716 17.9949 21.1667 17.0003 21.1667C16.0058 21.1667 15.0519 20.7716 14.3487 20.0683C13.6454 19.3651 13.2503 18.4112 13.2503 17.4167C13.2503 16.4221 13.6454 15.4683 14.3487 14.765C15.0519 14.0618 16.0058 13.6667 17.0003 13.6667ZM17.0003 14.9167C16.672 14.9167 16.3469 14.9813 16.0436 15.107C15.7403 15.2326 15.4647 15.4168 15.2326 15.6489C15.0004 15.8811 14.8163 16.1567 14.6906 16.46C14.565 16.7633 14.5003 17.0884 14.5003 17.4167C14.5003 17.745 14.565 18.0701 14.6906 18.3734C14.8163 18.6767 15.0004 18.9523 15.2326 19.1844C15.4647 19.4166 15.7403 19.6007 16.0436 19.7264C16.3469 19.852 16.672 19.9167 17.0003 19.9167C17.6634 19.9167 18.2993 19.6533 18.7681 19.1844C19.2369 18.7156 19.5003 18.0797 19.5003 17.4167C19.5003 16.7536 19.2369 16.1178 18.7681 15.6489C18.2993 15.1801 17.6634 14.9167 17.0003 14.9167Z" fill="white"/>
</svg>
