<svg width="20" height="20" viewBox="0 0 20 20" fill="none" xmlns="http://www.w3.org/2000/svg">
<path d="M14.2152 12.5723C13.7865 12.5722 13.362 12.6581 12.967 12.825C12.5721 12.9918 12.2146 13.2362 11.9158 13.5437L8.21182 11.1631C8.50317 10.416 8.50317 9.58662 8.21182 8.83949L11.9158 6.45885C12.4721 7.02875 13.2203 7.37178 14.0152 7.42141C14.8101 7.47104 15.5951 7.22375 16.218 6.72748C16.8409 6.23121 17.2574 5.52131 17.3867 4.73542C17.5159 3.94954 17.3488 3.14365 16.9176 2.474C16.4864 1.80435 15.822 1.31866 15.0531 1.11108C14.2841 0.9035 13.4655 0.988826 12.756 1.35051C12.0464 1.7122 11.4964 2.32449 11.2126 3.06865C10.9288 3.81282 10.9314 4.63586 11.22 5.3782L7.51602 7.75884C7.07 7.30093 6.49755 6.98643 5.87186 6.85555C5.24617 6.72466 4.59566 6.78334 4.00349 7.02408C3.41132 7.26482 2.90439 7.67667 2.54751 8.20701C2.19063 8.73734 2 9.36205 2 10.0013C2 10.6405 2.19063 11.2652 2.54751 11.7956C2.90439 12.3259 3.41132 12.7378 4.00349 12.9785C4.59566 13.2192 5.24617 13.2779 5.87186 13.147C6.49755 13.0161 7.07 12.7016 7.51602 12.2437L11.22 14.6244C10.9718 15.2643 10.9351 15.967 11.1152 16.6293C11.2953 17.2917 11.6827 17.879 12.2207 18.3052C12.7587 18.7315 13.419 18.9743 14.105 18.9981C14.791 19.0219 15.4666 18.8254 16.0328 18.4375C16.5991 18.0496 17.0263 17.4905 17.2518 16.8422C17.4773 16.194 17.4894 15.4905 17.2862 14.8349C17.0831 14.1792 16.6753 13.6059 16.1227 13.1987C15.5701 12.7916 14.9016 12.5721 14.2152 12.5723ZM14.2152 2.2881C14.5966 2.2881 14.9694 2.4012 15.2865 2.61308C15.6037 2.82496 15.8508 3.12612 15.9968 3.47847C16.1427 3.83082 16.1809 4.21854 16.1065 4.59259C16.0321 4.96664 15.8484 5.31023 15.5788 5.57991C15.3091 5.84959 14.9655 6.03324 14.5914 6.10764C14.2174 6.18205 13.8297 6.14386 13.4773 5.99791C13.125 5.85196 12.8238 5.60481 12.6119 5.2877C12.4 4.9706 12.2869 4.59778 12.2869 4.2164C12.2869 3.70498 12.4901 3.21451 12.8517 2.85289C13.2134 2.49126 13.7038 2.2881 14.2152 2.2881ZM5.21653 11.9296C4.83515 11.9296 4.46233 11.8165 4.14523 11.6046C3.82812 11.3927 3.58097 11.0916 3.43502 10.7392C3.28907 10.3869 3.25088 9.99915 3.32529 9.6251C3.39969 9.25104 3.58334 8.90745 3.85302 8.63778C4.1227 8.3681 4.46629 8.18445 4.84034 8.11004C5.21439 8.03564 5.60211 8.07383 5.95446 8.21977C6.30681 8.36572 6.60797 8.61288 6.81985 8.92998C7.03173 9.24709 7.14483 9.61991 7.14483 10.0013C7.14483 10.5127 6.94167 11.0032 6.58004 11.3648C6.21842 11.7264 5.72795 11.9296 5.21653 11.9296ZM14.2152 17.7145C13.8339 17.7145 13.461 17.6014 13.1439 17.3895C12.8268 17.1776 12.5797 16.8765 12.4337 16.5241C12.2878 16.1718 12.2496 15.784 12.324 15.41C12.3984 15.0359 12.5821 14.6923 12.8517 14.4227C13.1214 14.153 13.465 13.9693 13.8391 13.8949C14.2131 13.8205 14.6008 13.8587 14.9532 14.0047C15.3055 14.1506 15.6067 14.3978 15.8186 14.7149C16.0304 15.032 16.1435 15.4048 16.1435 15.7862C16.1435 16.2976 15.9404 16.7881 15.5788 17.1497C15.2171 17.5113 14.7267 17.7145 14.2152 17.7145Z" fill="#3366DD" stroke="#3366DD" stroke-width="0.4"/>
</svg>
