<svg width="24" height="24" viewBox="0 0 24 24" fill="none" xmlns="http://www.w3.org/2000/svg">
<path d="M2.05314 9.8C1.74147 9.8 1.4804 9.69 1.26994 9.47C1.05874 9.25 0.971469 8.99333 1.00814 8.7C1.13647 7.49 1.4529 6.33023 1.95744 5.2207C2.46124 4.1119 3.12564 3.1175 3.95064 2.2375C4.1523 2.03583 4.40897 1.935 4.72064 1.935C5.0323 1.935 5.29814 2.045 5.51814 2.265C5.7198 2.46667 5.82064 2.71417 5.82064 3.0075C5.82064 3.30083 5.7198 3.56667 5.51814 3.805C4.87647 4.50167 4.35874 5.25773 3.96494 6.0732C3.5704 6.8894 3.31814 7.765 3.20814 8.7C3.17147 9.01167 3.0479 9.27273 2.83744 9.4832C2.62624 9.6944 2.3648 9.8 2.05314 9.8ZM21.8531 9.8C21.5598 9.8 21.3031 9.6944 21.0831 9.4832C20.8631 9.27273 20.7348 9.01167 20.6981 8.7C20.5881 7.765 20.3362 6.8894 19.9424 6.0732C19.5479 5.25773 19.0298 4.50167 18.3881 3.805C18.1865 3.56667 18.0856 3.30083 18.0856 3.0075C18.0856 2.71417 18.1956 2.46667 18.4156 2.265C18.6356 2.045 18.8967 1.935 19.1988 1.935C19.5017 1.935 19.754 2.03583 19.9556 2.2375C20.7806 3.1175 21.4454 4.1119 21.9499 5.2207C22.4537 6.33023 22.7698 7.49 22.8981 8.7C22.9348 8.99333 22.8475 9.25 22.6363 9.47C22.4259 9.69 22.1648 9.8 21.8531 9.8ZM4.25314 19.7C3.94147 19.7 3.68004 19.5944 3.46884 19.3832C3.25837 19.1727 3.15314 18.9117 3.15314 18.6C3.15314 18.2883 3.25837 18.0273 3.46884 17.8168C3.68004 17.6056 3.94147 17.5 4.25314 17.5H5.35314V9.8C5.35314 8.27833 5.81147 6.92607 6.72814 5.7432C7.6448 4.56107 8.83647 3.78667 10.3031 3.42V2.65C10.3031 2.19167 10.4637 1.80227 10.7849 1.4818C11.1054 1.1606 11.4948 1 11.9531 1C12.4115 1 12.8009 1.1606 13.1213 1.4818C13.4425 1.80227 13.6031 2.19167 13.6031 2.65V3.42C15.0698 3.78667 16.2615 4.56107 17.1781 5.7432C18.0948 6.92607 18.5531 8.27833 18.5531 9.8V17.5H19.6531C19.9648 17.5 20.2259 17.6056 20.4363 17.8168C20.6475 18.0273 20.7531 18.2883 20.7531 18.6C20.7531 18.9117 20.6475 19.1727 20.4363 19.3832C20.2259 19.5944 19.9648 19.7 19.6531 19.7H4.25314ZM11.9531 23C11.3481 23 10.8304 22.7848 10.3999 22.3543C9.96874 21.9231 9.75314 21.405 9.75314 20.8H14.1531C14.1531 21.405 13.9379 21.9231 13.5074 22.3543C13.0762 22.7848 12.5581 23 11.9531 23ZM7.55314 17.5H16.3531V9.8C16.3531 8.59 15.9223 7.55417 15.0606 6.6925C14.199 5.83083 13.1631 5.4 11.9531 5.4C10.7431 5.4 9.7073 5.83083 8.84564 6.6925C7.98397 7.55417 7.55314 8.59 7.55314 9.8V17.5Z" fill="white"/>
</svg>
