<svg width="20" height="20" viewBox="0 0 20 20" fill="none" xmlns="http://www.w3.org/2000/svg">
<g clip-path="url(#clip0_64_11007)">
<path d="M8.33465 11.4653C8.61096 11.4653 8.87595 11.5751 9.07133 11.7705C9.26671 11.9658 9.37648 12.2308 9.37648 12.5071C9.37648 12.7835 9.26671 13.0485 9.07133 13.2438C8.87595 13.4392 8.61096 13.549 8.33465 13.549C8.05833 13.549 7.79334 13.4392 7.59796 13.2438C7.40258 13.0485 7.29282 12.7835 7.29282 12.5071C7.29282 12.2308 7.40258 11.9658 7.59796 11.7705C7.79334 11.5751 8.05833 11.4653 8.33465 11.4653ZM8.33465 3.33571C10.0532 3.33571 11.4235 4.74594 11.4235 6.58622C11.4235 7.56304 11.0667 8.09979 10.2116 8.78323L9.74987 9.14162C9.3398 9.46501 9.20145 9.6417 9.17311 9.88841L9.15477 10.1484C9.11767 10.3534 9.00517 10.537 8.83944 10.6632C8.67371 10.7893 8.46676 10.8488 8.25934 10.83C8.05191 10.8112 7.85905 10.7154 7.71873 10.5615C7.57841 10.4076 7.5008 10.2067 7.50118 9.99842C7.50118 9.04827 7.85124 8.52486 8.6947 7.85142L9.15811 7.49303C9.63818 7.10964 9.7582 6.92294 9.7582 6.58622C9.7582 5.65608 9.12144 5.00264 8.33465 5.00264C7.51118 5.00264 6.90275 5.61274 6.91276 6.57789C6.91497 6.79894 6.82928 7.01181 6.67453 7.16968C6.59791 7.24785 6.50665 7.31016 6.40595 7.35305C6.30524 7.39595 6.19708 7.41859 6.08763 7.41969C5.86658 7.4219 5.65371 7.33621 5.49584 7.18146C5.33797 7.02672 5.24804 6.81561 5.24583 6.59456C5.22749 4.6976 6.58771 3.33571 8.33465 3.33571ZM7.73716e-06 8.3315C0.000687585 6.52794 0.58638 4.77326 1.66916 3.3309C2.75193 1.88853 4.27336 0.836307 6.00503 0.332195C7.73671 -0.171916 9.58518 -0.100713 11.2729 0.535115C12.9607 1.17094 14.3967 2.33709 15.3653 3.85847C16.3339 5.37986 16.7829 7.17439 16.6448 8.97265C16.5068 10.7709 15.7891 12.4759 14.5996 13.8316C13.4101 15.1873 11.813 16.1205 10.0479 16.4913C8.28287 16.862 6.44519 16.6502 4.81076 15.8877L0.99683 16.6495C0.862383 16.6762 0.723408 16.6694 0.592222 16.6296C0.461035 16.5898 0.341687 16.5183 0.244752 16.4214C0.147818 16.3245 0.0762898 16.2051 0.0365062 16.0739C-0.00327746 15.9427 -0.0100885 15.8038 0.016677 15.6693L0.778463 11.8537C0.264098 10.7508 -0.00165313 9.54842 7.73716e-06 8.3315ZM8.33465 1.66379C7.19334 1.6635 6.07106 1.95617 5.07524 2.51379C4.07943 3.07141 3.24342 3.87531 2.64724 4.84853C2.05107 5.82175 1.71468 6.93171 1.67029 8.07216C1.6259 9.2126 1.87499 10.3454 2.39372 11.362C2.47932 11.5295 2.50576 11.721 2.46873 11.9054L1.8953 14.7708L4.76075 14.1974C4.94517 14.1604 5.13669 14.1868 5.30417 14.2724C6.20219 14.73 7.19225 14.978 8.19992 14.9979C9.2076 15.0178 10.2067 14.8089 11.122 14.3871C12.0374 13.9653 12.8452 13.3414 13.4847 12.5625C14.1243 11.7835 14.5789 10.8697 14.8144 9.8897C15.0499 8.90973 15.0603 7.88912 14.8446 6.9046C14.6289 5.92008 14.1928 4.99726 13.5691 4.20553C12.9455 3.41379 12.1504 2.77375 11.2438 2.33351C10.3372 1.89327 9.34252 1.66429 8.33465 1.66379ZM6.43435 18.153C7.91547 19.351 9.76355 20.0031 11.6685 20C12.9254 20 14.1189 19.7216 15.1907 19.2215L19.0063 19.9833C19.1408 20.0101 19.2797 20.0033 19.4109 19.9635C19.5421 19.9237 19.6615 19.8522 19.7584 19.7552C19.8553 19.6583 19.9269 19.539 19.9666 19.4078C20.0064 19.2766 20.0132 19.1376 19.9865 19.0032L19.2247 15.1892C19.7248 14.1174 20.0031 12.9222 20.0031 11.6654C20.0059 9.76097 19.3538 7.91354 18.1562 6.43287C18.3937 7.66693 18.3977 8.93459 18.1679 10.1701C18.5174 11.6975 18.3197 13.2992 17.6094 14.6958C17.5238 14.8633 17.4974 15.0548 17.5344 15.2392L18.1078 18.1047L15.2407 17.5313C15.0568 17.4946 14.866 17.5211 14.699 17.6063C13.3021 18.3177 11.6995 18.5153 10.1716 18.1647C8.93607 18.3944 7.66842 18.3905 6.43435 18.153Z" fill="#3366DD"/>
</g>
<defs>
<clipPath id="clip0_64_11007">
<rect width="20" height="20" fill="white"/>
</clipPath>
</defs>
</svg>
