<svg width="30" height="30" viewBox="0 0 30 30" fill="none" xmlns="http://www.w3.org/2000/svg">
<path d="M7.39517 3.32446C7.29186 3.19157 7.16146 3.08218 7.01263 3.00356C6.8638 2.92494 6.69994 2.87889 6.53195 2.86846C6.36395 2.85803 6.19566 2.88347 6.03824 2.94308C5.88083 3.00269 5.73791 3.09512 5.61896 3.21421L3.80951 5.02542C2.96428 5.8724 2.65278 7.07112 3.02202 8.12284C4.55453 12.476 7.04744 16.4283 10.3158 19.6866C13.5741 22.9549 17.5264 25.4478 21.8796 26.9804C22.9313 27.3496 24.13 27.0381 24.977 26.1929L26.7864 24.3834C26.9055 24.2645 26.998 24.1216 27.0576 23.9642C27.1172 23.8068 27.1426 23.6385 27.1322 23.4705C27.1218 23.3025 27.0757 23.1386 26.9971 22.9898C26.9185 22.8409 26.8091 22.7105 26.6762 22.6072L22.639 19.4678C22.4971 19.3577 22.3319 19.2813 22.1561 19.2443C21.9803 19.2073 21.7984 19.2107 21.6241 19.2543L17.7917 20.2115C17.2801 20.3394 16.7442 20.3326 16.236 20.1919C15.7279 20.0511 15.2648 19.7812 14.892 19.4083L10.5941 15.1087C10.2209 14.736 9.95068 14.273 9.80961 13.7649C9.66854 13.2567 9.66148 12.7207 9.78911 12.209L10.7481 8.37659C10.7917 8.20228 10.7951 8.02036 10.7581 7.84453C10.7211 7.66871 10.6447 7.50358 10.5346 7.36161L7.39517 3.32446ZM4.29774 1.89474C4.60398 1.58841 4.97188 1.35074 5.37701 1.19749C5.78215 1.04425 6.21525 0.978951 6.64755 1.00593C7.07986 1.03291 7.50148 1.15155 7.88442 1.35397C8.26736 1.55639 8.60286 1.83796 8.86863 2.17999L12.0081 6.21539C12.5838 6.95562 12.7868 7.91985 12.5593 8.82983L11.6021 12.6622C11.5526 12.8607 11.5552 13.0686 11.6098 13.2658C11.6644 13.463 11.769 13.6427 11.9136 13.7875L16.2132 18.0871C16.3582 18.2319 16.5382 18.3367 16.7357 18.3913C16.9332 18.4459 17.1414 18.4484 17.3402 18.3986L21.1708 17.4414C21.6199 17.3291 22.0886 17.3204 22.5415 17.4159C22.9945 17.5114 23.4198 17.7086 23.7853 17.9926L27.8207 21.132C29.2714 22.2607 29.4044 24.4044 28.1059 25.7012L26.2965 27.5106C25.0015 28.8056 23.066 29.3743 21.2618 28.7391C16.644 27.1143 12.4513 24.4707 8.99463 21.0043C5.52847 17.5481 2.88484 13.356 1.25982 8.73883C0.626333 6.93637 1.19507 4.99917 2.49004 3.7042L4.29949 1.89474H4.29774Z" fill="white"/>
</svg>
