<svg width="50" height="50" viewBox="0 0 50 50" fill="none" xmlns="http://www.w3.org/2000/svg">
<rect opacity="0.1" width="50" height="50" rx="25" fill="#3366DD"/>
<path opacity="0.1" d="M34 18.25V32.5L31 31L28 32.5L25 31L22 32.5L19 31L16 32.5V18.25C16 18.0511 16.079 17.8603 16.2197 17.7197C16.3603 17.579 16.5511 17.5 16.75 17.5H33.25C33.4489 17.5 33.6397 17.579 33.7803 17.7197C33.921 17.8603 34 18.0511 34 18.25Z" fill="#3366DD"/>
<path d="M19.75 22.75C19.75 22.5511 19.829 22.3603 19.9697 22.2197C20.1103 22.079 20.3011 22 20.5 22H29.5C29.6989 22 29.8897 22.079 30.0303 22.2197C30.171 22.3603 30.25 22.5511 30.25 22.75C30.25 22.9489 30.171 23.1397 30.0303 23.2803C29.8897 23.421 29.6989 23.5 29.5 23.5H20.5C20.3011 23.5 20.1103 23.421 19.9697 23.2803C19.829 23.1397 19.75 22.9489 19.75 22.75ZM20.5 26.5H29.5C29.6989 26.5 29.8897 26.421 30.0303 26.2803C30.171 26.1397 30.25 25.9489 30.25 25.75C30.25 25.5511 30.171 25.3603 30.0303 25.2197C29.8897 25.079 29.6989 25 29.5 25H20.5C20.3011 25 20.1103 25.079 19.9697 25.2197C19.829 25.3603 19.75 25.5511 19.75 25.75C19.75 25.9489 19.829 26.1397 19.9697 26.2803C20.1103 26.421 20.3011 26.5 20.5 26.5ZM34.75 18.25V32.5C34.7499 32.6278 34.7172 32.7535 34.6549 32.8651C34.5926 32.9768 34.5028 33.0706 34.394 33.1378C34.2853 33.2049 34.1611 33.2432 34.0334 33.2489C33.9057 33.2546 33.7787 33.2275 33.6644 33.1703L31 31.8381L28.3356 33.1703C28.2314 33.2225 28.1165 33.2496 28 33.2496C27.8835 33.2496 27.7686 33.2225 27.6644 33.1703L25 31.8381L22.3356 33.1703C22.2314 33.2225 22.1165 33.2496 22 33.2496C21.8835 33.2496 21.7686 33.2225 21.6644 33.1703L19 31.8381L16.3356 33.1703C16.2213 33.2275 16.0943 33.2546 15.9666 33.2489C15.8389 33.2432 15.7147 33.2049 15.606 33.1378C15.4972 33.0706 15.4074 32.9768 15.3451 32.8651C15.2828 32.7535 15.2501 32.6278 15.25 32.5V18.25C15.25 17.8522 15.408 17.4706 15.6893 17.1893C15.9706 16.908 16.3522 16.75 16.75 16.75H33.25C33.6478 16.75 34.0294 16.908 34.3107 17.1893C34.592 17.4706 34.75 17.8522 34.75 18.25ZM33.25 18.25H16.75V31.2869L18.6644 30.3287C18.7686 30.2766 18.8835 30.2495 19 30.2495C19.1165 30.2495 19.2314 30.2766 19.3356 30.3287L22 31.6619L24.6644 30.3287C24.7686 30.2766 24.8835 30.2495 25 30.2495C25.1165 30.2495 25.2314 30.2766 25.3356 30.3287L28 31.6619L30.6644 30.3287C30.7686 30.2766 30.8835 30.2495 31 30.2495C31.1165 30.2495 31.2314 30.2766 31.3356 30.3287L33.25 31.2869V18.25Z" fill="#3366DD"/>
</svg>
