<svg width="24" height="24" viewBox="0 0 24 24" fill="none" xmlns="http://www.w3.org/2000/svg">
<path d="M3.00488 3.00299H21.0049C21.2701 3.00299 21.5245 3.10835 21.712 3.29588C21.8995 3.48342 22.0049 3.73777 22.0049 4.00299V20.003C22.0049 20.2682 21.8995 20.5226 21.712 20.7101C21.5245 20.8976 21.2701 21.003 21.0049 21.003H3.00488C2.73967 21.003 2.48531 20.8976 2.29778 20.7101C2.11024 20.5226 2.00488 20.2682 2.00488 20.003V4.00299C2.00488 3.73777 2.11024 3.48342 2.29778 3.29588C2.48531 3.10835 2.73967 3.00299 3.00488 3.00299ZM4.00488 5.00299V19.003H20.0049V5.00299H4.00488ZM10.0549 11.003H15.0049V13.003H10.0549C10.1415 13.4283 10.3374 13.8238 10.6232 14.1504C10.9091 14.4771 11.2751 14.7237 11.6851 14.8659C12.0952 15.0082 12.5353 15.0413 12.962 14.9618C13.3887 14.8824 13.7874 14.6933 14.1189 14.413L15.8189 15.546C15.2348 16.1822 14.4799 16.6369 13.6444 16.8558C12.8089 17.0747 11.9281 17.0485 11.107 16.7804C10.286 16.5123 9.55948 16.0135 9.01419 15.3437C8.46891 14.6739 8.1279 13.8613 8.03188 13.003H7.00488V11.003H8.03188C8.12774 10.1444 8.4687 9.3316 9.01405 8.66159C9.55939 7.99158 10.2861 7.49271 11.1073 7.22456C11.9285 6.95641 12.8096 6.93031 13.6452 7.14938C14.4809 7.36845 15.2358 7.82344 15.8199 8.45999L14.1189 9.59399C13.7874 9.31371 13.3887 9.12455 12.962 9.04513C12.5353 8.96571 12.0952 8.99877 11.6851 9.14105C11.2751 9.28332 10.9091 9.52992 10.6232 9.85657C10.3374 10.1832 10.1415 10.5777 10.0549 11.003Z" fill="#3366DD"/>
</svg>
