<svg width="36" height="36" viewBox="0 0 36 36" fill="none" xmlns="http://www.w3.org/2000/svg">
<path d="M27.1129 2.33105L33.3724 8.85605V33.6691H9.98926V33.7501H33.4523V8.93818L27.1129 2.33105Z" fill="#909090"/>
<path d="M27.0349 2.25H9.909V33.669H33.372V8.85713L27.0349 2.25Z" fill="white"/>
<path d="M9.7366 3.9375H2.54785V11.6179H25.1604V3.9375H9.7366Z" fill="#7A7B7C"/>
<path d="M25.281 11.4873H2.69437V3.80127H25.281V11.4873Z" fill="#DD2025"/>
<path d="M10.1835 5.10077H8.71313V10.5008H9.86963V8.6794L10.125 8.69402C10.3731 8.68975 10.619 8.6453 10.8529 8.5624C11.058 8.49186 11.2466 8.38049 11.4075 8.23502C11.5712 8.09645 11.7002 7.92155 11.7844 7.72427C11.8972 7.39633 11.9375 7.04781 11.9025 6.70277C11.8955 6.4563 11.8523 6.21219 11.7743 5.97827C11.7032 5.80942 11.5978 5.6572 11.4648 5.5313C11.3317 5.40541 11.1739 5.30859 11.0014 5.24702C10.8522 5.19302 10.6981 5.15383 10.5413 5.13002C10.4225 5.1117 10.3025 5.10192 10.1824 5.10077M9.96975 7.68152H9.86963V6.01652H10.0868C10.1826 6.00961 10.2787 6.02432 10.3681 6.05957C10.4575 6.09481 10.5378 6.14969 10.6031 6.22015C10.7385 6.40129 10.8108 6.62178 10.809 6.8479C10.809 7.12465 10.809 7.37552 10.5593 7.55215C10.3793 7.65111 10.1745 7.69679 9.96975 7.68152ZM14.0996 5.08615C13.9748 5.08615 13.8533 5.09515 13.7678 5.09852L13.5 5.10527H12.6225V10.5053H13.6553C14.0499 10.5161 14.4429 10.4492 14.8118 10.3084C15.1087 10.1906 15.3716 10.0008 15.5768 9.75602C15.7763 9.50904 15.9195 9.22147 15.9964 8.9134C16.0848 8.5645 16.1279 8.20568 16.1246 7.84577C16.1464 7.4207 16.1136 6.99459 16.0268 6.5779C15.9444 6.27118 15.7901 5.9885 15.5768 5.75327C15.4093 5.56333 15.2044 5.41012 14.9749 5.30327C14.7778 5.21206 14.5704 5.14482 14.3573 5.10302C14.2725 5.08902 14.1867 5.08262 14.1008 5.0839M13.896 9.51302H13.7835V6.06602H13.7981C14.0301 6.03934 14.2647 6.08119 14.4731 6.1864C14.6257 6.30827 14.7501 6.4618 14.8376 6.6364C14.9321 6.82015 14.9865 7.02183 14.9974 7.22815C15.0075 7.47565 14.9974 7.67815 14.9974 7.84577C15.002 8.03887 14.9895 8.23199 14.9603 8.4229C14.9256 8.61891 14.8615 8.80855 14.7701 8.9854C14.6667 9.14982 14.527 9.28837 14.3618 9.3904C14.223 9.48017 14.0586 9.52205 13.8938 9.50965M19.6088 5.10527H16.875V10.5053H18.0315V8.36327H19.494V7.35977H18.0315V6.10877H19.6065V5.10527" fill="#464648"/>
<path d="M24.5036 22.7869C24.5036 22.7869 28.0901 22.1367 28.0901 23.3618C28.0901 24.5869 25.8682 24.0886 24.5036 22.7869ZM21.852 22.8803C21.2822 23.0062 20.7269 23.1906 20.1949 23.4304L20.6449 22.4179C21.0949 21.4054 21.5617 20.0251 21.5617 20.0251C22.0987 20.9288 22.7235 21.7774 23.427 22.5586C22.8965 22.6377 22.3707 22.7458 21.852 22.8826V22.8803ZM20.4322 15.5678C20.4322 14.5002 20.7776 14.2088 21.0465 14.2088C21.3154 14.2088 21.618 14.3382 21.6281 15.2652C21.5405 16.1973 21.3454 17.1162 21.0465 18.0034C20.6371 17.2585 20.4253 16.4212 20.4311 15.5712L20.4322 15.5678ZM15.2021 27.3983C14.1019 26.7402 17.5095 24.7141 18.1271 24.6488C18.1237 24.6499 16.3541 28.0868 15.2021 27.3983ZM29.1375 23.5069C29.1262 23.3944 29.025 22.1491 26.8087 22.2019C25.885 22.1871 24.9617 22.2522 24.0491 22.3966C23.1652 21.506 22.404 20.5015 21.7856 19.4097C22.1752 18.284 22.4109 17.1109 22.4865 15.9222C22.4539 14.5722 22.131 13.7982 21.096 13.8094C20.061 13.8207 19.9102 14.7263 20.0464 16.0741C20.1797 16.9798 20.4312 17.864 20.7945 18.7043C20.7945 18.7043 20.3164 20.1927 19.6841 21.6732C19.0519 23.1537 18.6199 23.9299 18.6199 23.9299C17.5204 24.2879 16.4854 24.8196 15.5542 25.5049C14.6272 26.3678 14.2504 27.0304 14.7386 27.6931C15.1594 28.2646 16.632 28.3939 17.9482 26.6693C18.6476 25.7786 19.2865 24.842 19.8607 23.8658C19.8607 23.8658 21.8677 23.3157 22.4921 23.1649C23.1165 23.0142 23.8714 22.8949 23.8714 22.8949C23.8714 22.8949 25.704 24.7388 27.4714 24.6736C29.2387 24.6083 29.1532 23.6172 29.142 23.5092" fill="#DD2025"/>
<path d="M26.9482 2.33667V8.9438H33.2854L26.9482 2.33667Z" fill="#909090"/>
<path d="M27.0352 2.25V8.85713H33.3723L27.0352 2.25Z" fill="white"/>
<path d="M10.0973 5.0141H8.62695V10.4141H9.78795V8.59385L10.0445 8.60848C10.2926 8.60421 10.5384 8.55976 10.7723 8.47685C10.9774 8.40629 11.1661 8.29492 11.327 8.14948C11.4894 8.01053 11.6173 7.83566 11.7005 7.63873C11.8133 7.31079 11.8536 6.96227 11.8186 6.61723C11.8116 6.37075 11.7683 6.12664 11.6903 5.89273C11.6193 5.72387 11.5139 5.57166 11.3809 5.44576C11.2478 5.31986 11.09 5.22305 10.9175 5.16148C10.7676 5.10695 10.6127 5.06738 10.4551 5.04335C10.3363 5.02503 10.2164 5.01525 10.0962 5.0141M9.88358 7.59485H9.78345V5.92985H10.0017C10.0975 5.92294 10.1937 5.93766 10.2831 5.9729C10.3724 6.00815 10.4528 6.06302 10.5181 6.13348C10.6534 6.31462 10.7257 6.53511 10.724 6.76123C10.724 7.03798 10.724 7.28885 10.4742 7.46548C10.2943 7.56444 10.0895 7.609 9.8847 7.59373M14.0135 4.99948C13.8886 4.99948 13.7671 5.00848 13.6816 5.01185L13.4172 5.0186H12.5397V10.4186H13.5725C13.9671 10.4294 14.3601 10.3625 14.729 10.2217C15.0259 10.104 15.2888 9.91413 15.494 9.66935C15.6935 9.42237 15.8367 9.1348 15.9136 8.82673C16.002 8.47783 16.0451 8.11901 16.0418 7.7591C16.0636 7.33403 16.0308 6.90792 15.944 6.49123C15.8616 6.18451 15.7073 5.90183 15.494 5.6666C15.3265 5.47666 15.1216 5.32345 14.8921 5.2166C14.695 5.12539 14.4876 5.05816 14.2745 5.01635C14.1897 5.00235 14.1039 4.99595 14.018 4.99723M13.8132 9.42635H13.7007V5.97935H13.7153C13.9473 5.95267 14.1819 5.99452 14.3903 6.09973C14.5429 6.2216 14.6673 6.37513 14.7548 6.54973C14.8493 6.73348 14.9037 6.93516 14.9146 7.14148C14.9247 7.38898 14.9146 7.59148 14.9146 7.7591C14.9192 7.9522 14.9067 8.14532 14.8775 8.33623C14.8428 8.53224 14.7787 8.72188 14.6873 8.89873C14.5839 9.06315 14.4442 9.2017 14.279 9.30373C14.1402 9.3935 13.9758 9.43538 13.811 9.42298M19.5226 5.0186H16.7888V10.4186H17.9453V8.2766H19.4078V7.2731H17.9453V6.0221H19.5203V5.0186" fill="white"/>
</svg>
