<svg width="46" height="46" viewBox="0 0 46 46" fill="none" xmlns="http://www.w3.org/2000/svg">
<rect opacity="0.1" width="46" height="46" rx="23" fill="#7AA2FF"/>
<path d="M17.8602 30.6875H28.1398L28.707 18.6875H17.293L17.8602 30.6875Z" fill="#3366DD" fill-opacity="0.1"/>
<path d="M31.25 17H28.25V15.125C28.25 14.2977 27.5773 13.625 26.75 13.625H19.25C18.4227 13.625 17.75 14.2977 17.75 15.125V17H14.75C14.3352 17 14 17.3352 14 17.75V18.5C14 18.6031 14.0844 18.6875 14.1875 18.6875H15.6031L16.182 30.9453C16.2195 31.7445 16.8805 32.375 17.6797 32.375H28.3203C29.1219 32.375 29.7805 31.7469 29.818 30.9453L30.3969 18.6875H31.8125C31.9156 18.6875 32 18.6031 32 18.5V17.75C32 17.3352 31.6648 17 31.25 17ZM19.4375 15.3125H26.5625V17H19.4375V15.3125ZM28.1398 30.6875H17.8602L17.293 18.6875H28.707L28.1398 30.6875Z" fill="#3366DD"/>
</svg>
