<svg width="46" height="46" viewBox="0 0 46 46" fill="none" xmlns="http://www.w3.org/2000/svg">
<rect opacity="0.1" width="46" height="46" rx="23" fill="#7AA2FF"/>
<path opacity="0.1" d="M32 16.25V30.5L29 29L26 30.5L23 29L20 30.5L17 29L14 30.5V16.25C14 16.0511 14.079 15.8603 14.2197 15.7197C14.3603 15.579 14.5511 15.5 14.75 15.5H31.25C31.4489 15.5 31.6397 15.579 31.7803 15.7197C31.921 15.8603 32 16.0511 32 16.25Z" fill="#3366DD"/>
<path d="M17.75 20.75C17.75 20.5511 17.829 20.3603 17.9697 20.2197C18.1103 20.079 18.3011 20 18.5 20H27.5C27.6989 20 27.8897 20.079 28.0303 20.2197C28.171 20.3603 28.25 20.5511 28.25 20.75C28.25 20.9489 28.171 21.1397 28.0303 21.2803C27.8897 21.421 27.6989 21.5 27.5 21.5H18.5C18.3011 21.5 18.1103 21.421 17.9697 21.2803C17.829 21.1397 17.75 20.9489 17.75 20.75ZM18.5 24.5H27.5C27.6989 24.5 27.8897 24.421 28.0303 24.2803C28.171 24.1397 28.25 23.9489 28.25 23.75C28.25 23.5511 28.171 23.3603 28.0303 23.2197C27.8897 23.079 27.6989 23 27.5 23H18.5C18.3011 23 18.1103 23.079 17.9697 23.2197C17.829 23.3603 17.75 23.5511 17.75 23.75C17.75 23.9489 17.829 24.1397 17.9697 24.2803C18.1103 24.421 18.3011 24.5 18.5 24.5ZM32.75 16.25V30.5C32.7499 30.6278 32.7172 30.7535 32.6549 30.8651C32.5926 30.9768 32.5028 31.0706 32.394 31.1378C32.2853 31.2049 32.1611 31.2432 32.0334 31.2489C31.9057 31.2546 31.7787 31.2275 31.6644 31.1703L29 29.8381L26.3356 31.1703C26.2314 31.2225 26.1165 31.2496 26 31.2496C25.8835 31.2496 25.7686 31.2225 25.6644 31.1703L23 29.8381L20.3356 31.1703C20.2314 31.2225 20.1165 31.2496 20 31.2496C19.8835 31.2496 19.7686 31.2225 19.6644 31.1703L17 29.8381L14.3356 31.1703C14.2213 31.2275 14.0943 31.2546 13.9666 31.2489C13.8389 31.2432 13.7147 31.2049 13.606 31.1378C13.4972 31.0706 13.4074 30.9768 13.3451 30.8651C13.2828 30.7535 13.2501 30.6278 13.25 30.5V16.25C13.25 15.8522 13.408 15.4706 13.6893 15.1893C13.9706 14.908 14.3522 14.75 14.75 14.75H31.25C31.6478 14.75 32.0294 14.908 32.3107 15.1893C32.592 15.4706 32.75 15.8522 32.75 16.25ZM31.25 16.25H14.75V29.2869L16.6644 28.3287C16.7686 28.2766 16.8835 28.2495 17 28.2495C17.1165 28.2495 17.2314 28.2766 17.3356 28.3287L20 29.6619L22.6644 28.3287C22.7686 28.2766 22.8835 28.2495 23 28.2495C23.1165 28.2495 23.2314 28.2766 23.3356 28.3287L26 29.6619L28.6644 28.3287C28.7686 28.2766 28.8835 28.2495 29 28.2495C29.1165 28.2495 29.2314 28.2766 29.3356 28.3287L31.25 29.2869V16.25Z" fill="#3366DD"/>
</svg>
