<svg width="46" height="46" viewBox="0 0 46 46" fill="none" xmlns="http://www.w3.org/2000/svg">
<rect opacity="0.1" width="46" height="46" rx="23" fill="#7AA2FF"/>
<path opacity="0.1" d="M30 20.79L22.21 13H16V19.21L23.79 27L30 20.79ZM18.25 16.5C17.9185 16.5 17.6005 16.3683 17.3661 16.1339C17.1317 15.8995 17 15.5815 17 15.25C17 14.9185 17.1317 14.6005 17.3661 14.3661C17.6005 14.1317 17.9185 14 18.25 14C18.5815 14 18.8995 14.1317 19.1339 14.3661C19.3683 14.6005 19.5 14.9185 19.5 15.25C19.5 15.5815 19.3683 15.8995 19.1339 16.1339C18.8995 16.3683 18.5815 16.5 18.25 16.5Z" fill="#3366DD"/>
<path d="M23.79 32L14 22.21V24.21C14 24.74 14.21 25.25 14.59 25.62L22.38 33.41C23.16 34.19 24.43 34.19 25.21 33.41L31.42 27.2C32.2 26.42 32.2 25.15 31.42 24.37L23.79 32Z" fill="#3366DD"/>
<path d="M22.38 28.41C22.77 28.8 23.28 29 23.79 29C24.3 29 24.81 28.8 25.2 28.41L31.41 22.2C32.19 21.42 32.19 20.15 31.41 19.37L23.62 11.58C23.25 11.21 22.74 11 22.21 11H16C14.9 11 14 11.9 14 13V19.21C14 19.74 14.21 20.25 14.59 20.62L22.38 28.41ZM16 13H22.21L30 20.79L23.79 27L16 19.21V13Z" fill="#3366DD"/>
<path d="M18.25 16.5C18.9404 16.5 19.5 15.9404 19.5 15.25C19.5 14.5596 18.9404 14 18.25 14C17.5596 14 17 14.5596 17 15.25C17 15.9404 17.5596 16.5 18.25 16.5Z" fill="#3366DD"/>
</svg>
