<svg width="46" height="46" viewBox="0 0 46 46" fill="none" xmlns="http://www.w3.org/2000/svg">
<rect opacity="0.1" width="46" height="46" rx="23" fill="#7AA2FF"/>
<path d="M13.5587 32.9364H32.4413C32.5895 32.9364 32.7316 32.8775 32.8364 32.7727C32.9411 32.668 33 32.5259 33 32.3777C33 32.2295 32.9411 32.0874 32.8364 31.9827C32.7316 31.8779 32.5895 31.819 32.4413 31.819H13.5587C13.4105 31.819 13.2684 31.8779 13.1636 31.9827C13.0589 32.0874 13 32.2295 13 32.3777C13 32.5259 13.0589 32.668 13.1636 32.7727C13.2684 32.8775 13.4105 32.9364 13.5587 32.9364ZM20.4436 28.7375C20.9155 28.6054 21.3462 28.3555 21.695 28.0112L32.3542 17.352C32.7192 16.9855 32.9242 16.4894 32.9242 15.9721C32.9242 15.4549 32.7192 14.9587 32.3542 14.5922L31.3039 13.5531C30.9322 13.1981 30.438 13 29.924 13C29.41 13 28.9158 13.1981 28.5441 13.5531L17.8849 24.2012C17.54 24.5477 17.2933 24.9795 17.1698 25.4526L16.343 28.5364C16.3038 28.6772 16.3028 28.826 16.3401 28.9674C16.3774 29.1088 16.4517 29.2377 16.5553 29.3408C16.7135 29.4963 16.9257 29.5844 17.1475 29.5866L20.4436 28.7375ZM20.9017 27.2179C20.6957 27.4276 20.4371 27.5781 20.1531 27.6537L19.0693 27.9442L17.952 26.8269L18.2425 25.7431C18.3206 25.4601 18.4707 25.2022 18.6782 24.9945L19.1028 24.5811L21.3263 26.8045L20.9017 27.2179ZM22.1196 26.0112L19.8961 23.7878L27.4156 16.2682L29.6391 18.4917L22.1196 26.0112ZM31.5609 16.5699L30.4324 17.6984L28.2089 15.4749L29.3374 14.3353C29.4151 14.2573 29.5074 14.1954 29.609 14.1532C29.7106 14.111 29.8196 14.0893 29.9296 14.0893C30.0397 14.0893 30.1486 14.111 30.2502 14.1532C30.3519 14.1954 30.4441 14.2573 30.5218 14.3353L31.5609 15.3855C31.7167 15.5432 31.8041 15.756 31.8041 15.9777C31.8041 16.1994 31.7167 16.4122 31.5609 16.5699Z" fill="#3366DD" stroke="#3366DD" stroke-width="0.6"/>
</svg>
