<svg width="46" height="46" viewBox="0 0 46 46" fill="none" xmlns="http://www.w3.org/2000/svg">
<rect opacity="0.1" width="46" height="46" rx="23" fill="#7AA2FF"/>
<path d="M14 26.8109C14 24.2657 14 22.9922 14.7911 22.202C15.5813 21.4109 16.8548 21.4109 19.4 21.4109H26.6C29.1452 21.4109 30.4187 21.4109 31.2089 22.202C32 22.9922 32 24.2657 32 26.8109C32 29.3561 32 30.6296 31.2089 31.4198C30.4187 32.2109 29.1452 32.2109 26.6 32.2109H19.4C16.8548 32.2109 15.5813 32.2109 14.7911 31.4198C14 30.6296 14 29.3561 14 26.8109Z" stroke="#3366DD" stroke-width="1.5"/>
<path opacity="0.5" d="M17.5996 21.4109V19.6109C17.5996 18.1787 18.1685 16.8052 19.1812 15.7925C20.1939 14.7798 21.5674 14.2109 22.9996 14.2109C24.4318 14.2109 25.8053 14.7798 26.818 15.7925C27.8307 16.8052 28.3996 18.1787 28.3996 19.6109V21.4109" stroke="#3366DD" stroke-width="1.5" stroke-linecap="round"/>
<path opacity="0.5" d="M20.3 26.8109C20.3 27.0496 20.2052 27.2785 20.0364 27.4473C19.8676 27.6161 19.6387 27.7109 19.4 27.7109C19.1613 27.7109 18.9324 27.6161 18.7636 27.4473C18.5948 27.2785 18.5 27.0496 18.5 26.8109C18.5 26.5722 18.5948 26.3433 18.7636 26.1745C18.9324 26.0057 19.1613 25.9109 19.4 25.9109C19.6387 25.9109 19.8676 26.0057 20.0364 26.1745C20.2052 26.3433 20.3 26.5722 20.3 26.8109ZM23.9 26.8109C23.9 27.0496 23.8052 27.2785 23.6364 27.4473C23.4676 27.6161 23.2387 27.7109 23 27.7109C22.7613 27.7109 22.5324 27.6161 22.3636 27.4473C22.1948 27.2785 22.1 27.0496 22.1 26.8109C22.1 26.5722 22.1948 26.3433 22.3636 26.1745C22.5324 26.0057 22.7613 25.9109 23 25.9109C23.2387 25.9109 23.4676 26.0057 23.6364 26.1745C23.8052 26.3433 23.9 26.5722 23.9 26.8109ZM27.5 26.8109C27.5 27.0496 27.4052 27.2785 27.2364 27.4473C27.0676 27.6161 26.8387 27.7109 26.6 27.7109C26.3613 27.7109 26.1324 27.6161 25.9636 27.4473C25.7948 27.2785 25.7 27.0496 25.7 26.8109C25.7 26.5722 25.7948 26.3433 25.9636 26.1745C26.1324 26.0057 26.3613 25.9109 26.6 25.9109C26.8387 25.9109 27.0676 26.0057 27.2364 26.1745C27.4052 26.3433 27.5 26.5722 27.5 26.8109Z" fill="#3366DD"/>
</svg>
