<svg width="44" height="44" viewBox="0 0 44 44" fill="none" xmlns="http://www.w3.org/2000/svg">
<rect width="44" height="44" rx="22" fill="#3366DD"/>
<path d="M29.7715 14.2184C29.6703 14.1177 29.5424 14.0479 29.4029 14.0174C29.2634 13.9868 29.1181 13.9967 28.984 14.0459L12.484 20.0459C12.3417 20.0999 12.2192 20.1959 12.1328 20.3211C12.0463 20.4464 12 20.595 12 20.7472C12 20.8994 12.0463 21.048 12.1328 21.1732C12.2192 21.2985 12.3417 21.3945 12.484 21.4484L18.9265 24.0209L23.6815 19.2509L24.739 20.3084L19.9615 25.0859L22.5415 31.5284C22.5971 31.668 22.6933 31.7876 22.8177 31.8719C22.942 31.9561 23.0888 32.0011 23.239 32.0009C23.3906 31.9978 23.5376 31.9489 23.6608 31.8605C23.784 31.7721 23.8775 31.6485 23.929 31.5059L29.929 15.0059C29.9801 14.8732 29.9924 14.7287 29.9646 14.5893C29.9367 14.4499 29.8697 14.3213 29.7715 14.2184Z" fill="white"/>
</svg>
