<svg width="18" height="18" viewBox="0 0 18 18" fill="none" xmlns="http://www.w3.org/2000/svg">
<path d="M14.2554 6.99L3.75543 1.74C3.34105 1.53376 2.87314 1.46034 2.41551 1.52974C1.95787 1.59915 1.53277 1.80801 1.19818 2.12784C0.863582 2.44768 0.635769 2.86292 0.545799 3.31696C0.455829 3.771 0.508081 4.24174 0.69543 4.665L2.49543 8.6925C2.53627 8.78988 2.55731 8.89441 2.55731 9C2.55731 9.1056 2.53627 9.21013 2.49543 9.3075L0.69543 13.335C0.542955 13.6775 0.478496 14.0527 0.507913 14.4265C0.537329 14.8003 0.659686 15.1608 0.863866 15.4753C1.06805 15.7898 1.34757 16.0482 1.67705 16.2272C2.00652 16.4061 2.37549 16.4999 2.75043 16.5C3.1016 16.4965 3.44755 16.4145 3.76293 16.26L14.2629 11.01C14.6354 10.8226 14.9484 10.5355 15.1672 10.1806C15.386 9.82564 15.5018 9.41692 15.5018 9C15.5018 8.58309 15.386 8.17437 15.1672 7.81945C14.9484 7.46453 14.6354 7.17737 14.2629 6.99H14.2554ZM13.5879 9.66751L3.08793 14.9175C2.95005 14.9837 2.79523 15.0062 2.64422 14.9819C2.49321 14.9576 2.35324 14.8877 2.24306 14.7816C2.13289 14.6756 2.05779 14.5383 2.02783 14.3883C1.99787 14.2383 2.01447 14.0828 2.07543 13.9425L3.86793 9.915C3.89113 9.86122 3.91117 9.80613 3.92793 9.75H9.09543C9.29434 9.75 9.48511 9.67099 9.62576 9.53033C9.76641 9.38968 9.84543 9.19892 9.84543 9C9.84543 8.80109 9.76641 8.61033 9.62576 8.46968C9.48511 8.32902 9.29434 8.25 9.09543 8.25H3.92793C3.91117 8.19388 3.89113 8.13879 3.86793 8.085L2.07543 4.0575C2.01447 3.91723 1.99787 3.76167 2.02783 3.61168C2.05779 3.4617 2.13289 3.32446 2.24306 3.21837C2.35324 3.11227 2.49321 3.0424 2.64422 3.01812C2.79523 2.99384 2.95005 3.0163 3.08793 3.0825L13.5879 8.3325C13.7108 8.39544 13.8139 8.49107 13.8859 8.60884C13.9579 8.72661 13.996 8.86197 13.996 9C13.996 9.13804 13.9579 9.2734 13.8859 9.39117C13.8139 9.50895 13.7108 9.60457 13.5879 9.66751Z" fill="#F5A303"/>
</svg>
